<svg xmlns="http://www.w3.org/2000/svg" viewBox="0 0 262.55 133.13"><title>Asset 1</title><g id="Layer_2" data-name="Layer 2"><g id="Layer_1-2" data-name="Layer 1"><path d="M31.64,96.26c-.54,1.13-1.09,2.31-1.79,3.79l3.58,1.63c.48-1.12.84-2,1.31-3.09,7.45-1.17,15-2.67,23.35-1.6l-1.84,2.67C49.32,97,43,99.31,35.74,100.78c1.07,1.19,1.5,2.06,2.17,2.34,9.38,4,18.77,7.92,28.22,11.72,2.15.86,4.53,1.08,6.79,1.69,4,1.09,8.1,2,12,3.43a112,112,0,0,0,41.92,7c5.76-.17,11.53.65,17.31.82,9.24.28,18.28,2.2,27.41,3.25,7.53.87,15.2.49,22.49-2.48,6.49-2.65,13.16-4.83,19.62-7.52a42,42,0,0,0,17.81-14.52,29.57,29.57,0,0,0,5.77-18c0-6.5,0-13,0-20.11l-11.14-1.54c3.61-1.57,12.79-.22,36.44,4.86l-.25,2c-4-1.08-7.64-2.16-11.36-3.07s-7.56-2-12.12-.92c-.13,3.21-.3,6.34-.36,9.48-.09,4.9.4,9.88-.23,14.71-1.6,12.37-9.33,20.6-19.6,26.62-4.11,2.4-8.72,4-13.13,5.81-1.93.81-4.06,1.17-5.9,2.12-7.93,4.11-16.53,4.74-25.15,4.56-4.36-.09-8.67-1.78-13.06-2.16-11.37-1-22.77-2.24-34.17-2.35-15.19-.14-29.84-2.28-44-7.94-3.38-1.36-7.13-1.8-10.66-2.82-3.76-1.1-7.55-2.19-11.19-3.63-7.42-2.92-14.76-6.07-22.14-9.1a7.73,7.73,0,0,0-1.9-.14c.79,6.24,1.54,12.26,2.35,18.67-.6-.34-1.53-.54-1.75-1a10.82,10.82,0,0,1-.87-3.55,38.84,38.84,0,0,0-3.67-14.13"/><path d="M104.46,46.29c-1.66-2.84-1.59-8.23,0-12.64,2.24,2.46.18,5.47,1.58,8.54l19.59-24.28c-3.67-2.05-6.45,1.32-10.41.28,1.45-1.12,2.23-2.11,3.22-2.42a49.87,49.87,0,0,1,7.8-1.82,4.15,4.15,0,0,1,4.66,3.4c.61,3.83.43,7.79.53,11.69,0,.23-.49.46-1.24,1.12-1.95-3.62.37-7.72-1.62-11-6.7,3-14.13,15.73-19.62,23.4,2.61-.91,5.22-1.8,7.82-2.73S121.91,38,124.48,37l.65.9c-.72.72-1.31,1.78-2.18,2.09C118,41.82,113,43.44,108,45.12Z"/><path d="M26.46,84.35c-3.84.68-7.7,1.25-11.5,2.08a22.33,22.33,0,0,0-5.12,2c-4.21,2.09-4.75,3.22-4.23,8.37,2.54,1.27,5.19.2,7.82.15,2.47,0,5-1.47,8.22.63L5.42,99.77c-1.23,6.59,1.63,14-2.66,21a12.21,12.21,0,0,1-1.07-2.2c-.1-.41.31-1.27.2-1.32-3.14-1.48-1.48-4-1.22-6,1-7.88,2.2-15.75,3.27-23.27,2.21-.6,4.11-1.18,6.05-1.63,4.41-1,8.82-2,13.26-2.93a12.89,12.89,0,0,1,3.36.23Zm-23,27c0,.18-.06.36-.08.53C3.44,111.67,3.46,111.49,3.49,111.31Z"/><path d="M28.71,91.49a26.1,26.1,0,0,1,1.42-4c4.29-8,10.72-14.18,17.52-20.11,9.67-8.45,21.27-11.85,33.49-14,2.56-.44,2.73-.23,3,2.64-25.28,1-41.81,15.38-54.5,35.64Z"/><path d="M95.42,40a35.82,35.82,0,0,1,3.22,4.15c1.56,2.77,2.82,5.7,4.33,8.51a58.57,58.57,0,0,0,3.28,5.27c.74,1.08,1.57,2-.6,3.14-.85-1.4-1.76-2.78-2.55-4.23S101.74,54,101,52.49c-3.29-.14-6.78-.35-8.94,1.76-2,1.94-2.69,5.14-4,7.82C86,58.63,90.05,45.82,95.42,40Zm.4,3.27-1,.32C93.86,46,91.55,48.06,93,51.48l7.3-1Z"/><path d="M153.23,62.59c-2.72-.89-5.5-1.66-8.16-2.71-4.9-2-9.66-4.26-14.61-6.05-4.13-1.49-8.46-2.43-12.68-3.67-1.23-.36-3,.07-3.33-2.41a61.47,61.47,0,0,1,16,4.42c5,2.09,9.92,4.28,14.94,6.24,2,.79,4.29,1,6.38,1.66a7.71,7.71,0,0,1,2.06,1.53Z"/><path d="M145.09,0a26.35,26.35,0,0,0-9.16,8.24c-3.58,5.07-2.9,8.2,2.7,10.78,6.65,3.06,13.7,3.51,20.88,2.39a7.89,7.89,0,0,1,3.05-.09,4.92,4.92,0,0,1-1.52.85c-8.41,1.1-16.65.85-24.43-3.07-4.38-2.2-5.59-5.4-3.2-9.65C136,4.8,139.29.79,145.09,0Z"/><path d="M162.88,56l2.08.53c-.52,1.56-1.09,2.88-1.4,4.26-.79,3.44-1.86,6.89-2.07,10.37-.23,3.81,1.34,5,5.18,5s7.84-.25,11.76-.36a3.33,3.33,0,0,1,2.23.73,9.13,9.13,0,0,1-2.09.64c-4,.22-8.08.38-12.12.52-3.68.12-5.36-1.25-6.22-4.86-.89-3.77.27-7.28,1.27-10.82.57-2,1-4,1.48-6Z"/><path d="M198.35,63.7c1.34-3.69,17.24-14.15,20.84-14.19-3,3.07-7.17,4.44-10.58,6.93S201.78,61.28,198.35,63.7Z"/><path d="M234.07,44.91a5.22,5.22,0,0,1,1.72-.66c6.58,0,13.17,0,20,0-2,1.44-18,2.62-20.95,1.72C234.61,45.59,234.34,45.25,234.07,44.91Z"/><path d="M228.05,50.23c.93.54,1.88,1,2.78,1.6a9.25,9.25,0,0,0,12.89-2.58c1.32,2.08.34,3.3-1.39,4-4.61,2-10.15,2.87-14.23-3.13Z"/><path d="M163,56c-1-1.25-.32-2.11.79-2.61,5.5-2.44,11.43-3.24,17.13-4.92l.32,1c-1.09.34-2.16.73-3.26,1-3.2.87-6.47,1.53-9.6,2.6A38.09,38.09,0,0,0,162.89,56Z"/><path d="M228.1,50.17c-2-4.94-2-9.75,1-14.31,1-1.52,2.25-2.86,4.79-2.12-.44.76-.62,1.59-1.1,1.82-4.76,2.32-5.51,6.39-5,11.06.13,1.2.19,2.4.28,3.6Z"/><path d="M163.35,65.11c4.49-2.41,9.51-3.29,14.24-5l.39,1.14-14.34,4.72C163.54,65.67,163.45,65.39,163.35,65.11Z"/></g></g></svg>