<svg xmlns="http://www.w3.org/2000/svg" viewBox="0 0 237.73 402.12"><title>Asset 3</title><g id="Layer_2" data-name="Layer 2"><g id="Layer_1-2" data-name="Layer 1"><path d="M45.08,170.78A1.68,1.68,0,0,1,44,171.93c-2.42,1.07-4.85,2.11-7.22,3.27-8.54,4.19-17.24,8.07-25.54,12.74-.4.22-.84.36-1.21.52-.43-.46-.14-.69.07-.89a4.3,4.3,0,0,1,.76-.59A84.48,84.48,0,0,0,18.19,182c2-1.49,4-2.84,6.14-4.15,5.3-3.3,10.71-6.42,16.28-9.25,6.49-3.29,12.93-6.7,19.64-9.53,3-1.26,2.9-1.13,3.31-4.58.28-2.3.45-4.63.94-6.89,1.27-5.78,2.28-11.63,4.09-17.28.37-1.14.8-2.26,1.22-3.38.27-.75.57-1.5.86-2.24a2.43,2.43,0,0,0-.4-2.49c-.34-.44-.63-.92-1-1.35a98.26,98.26,0,0,0-13.7-13.43c-4.2-3.33-8.52-6.52-12.2-10.45-1.81-1.92-3.61-3.87-5.26-5.92A85.63,85.63,0,0,0,24.93,77.84a27.78,27.78,0,0,1-4.86-5.29c-1.09-1.47-2.27-2.89-3.5-4.25a13.71,13.71,0,0,0-4-3A14.29,14.29,0,0,1,10,63.49c-.48-.39-.46-.67-.28-1.82l1.94.18c-.26-1-.58-1.81-1.54-2.09-1.28-.37-1.4-1.4-1.51-2.45a.66.66,0,0,1,1-.63,7.23,7.23,0,0,1,1.33,1,30.69,30.69,0,0,1,6.25,7.86,29.2,29.2,0,0,1,2,3.55,3.86,3.86,0,0,0,1,1.29,47.87,47.87,0,0,0,8.15,6.31,67.76,67.76,0,0,1,10.08,8.12c2,1.93,4.18,3.73,6.36,5.48,3.74,3,7.47,6,11.34,8.87a81.22,81.22,0,0,0,12.92,8.27c1.44.68,2.77,1.57,4.11,2.35.82-.32.78-1,.92-1.63,1.07-4.35,2.08-8.72,3.21-13.06,1-3.71,2-7.4,3.11-11.09.35-1.21.79-2.4,1.16-3.52a.69.69,0,0,0-1.15,0c-1.29,1.31-2.55,2.64-3.81,4a7.55,7.55,0,0,1-.74.93,1,1,0,0,1-.85.15.87.87,0,0,1-.3-.8,3.25,3.25,0,0,1,.66-1.26c1.91-2.25,3.81-4.53,5.81-6.71,2.2-2.39,4.26-1.46,5.37,1.12.57,1.32,1.14,2.64,1.73,4A4.76,4.76,0,0,0,89.78,84a.84.84,0,0,1,.15.8,1.08,1.08,0,0,1-.85.26A2.3,2.3,0,0,1,87.3,83.6c-.71-1.52-1.37-3.07-2.07-4.59a13.31,13.31,0,0,0-.9-1.66.68.68,0,0,0-.62-.16c-.17.06-.39.38-.35.53.41,1.58-.15,3-.71,4.42-.46,1.19-.84,2.41-1.2,3.64-1.64,5.69-3.44,11.34-4.66,17.15-.86,4.15-1.76,8.29-2.66,12.44-.29,1.33-.64,2.64-.95,4-.18.77-.31,1.56-.49,2.34a3.58,3.58,0,0,0,.74,3.15A7.13,7.13,0,0,1,75,127.57c-1.34-.36-1.54-1.72-2.62-2.34a3.68,3.68,0,0,0-.53.68,71.75,71.75,0,0,0-4.55,15.88c-.16.86-.43,1.7-.66,2.55A54.54,54.54,0,0,0,65,155.48a8.87,8.87,0,0,0,.15,1.28c2.66-.57,4.87-1.88,7.23-2.8s4.62-1.76,7.18-2.72L79.28,153c-.49.23-1,.5-1.49.7q-2,.76-4.05,1.47a4.41,4.41,0,0,1-1.62.32,2.65,2.65,0,0,0-2.36.89,2.4,2.4,0,0,1-2.12.8c-1.18,0-2.93,1.69-3.09,2.88a3.44,3.44,0,0,0,.23,1l5.42-2.19c4.66-1.91,9.32-3.84,14-5.71,4.46-1.78,8.94-3.5,13.42-5.21,2.62-1,5.26-1.93,7.88-2.92q11.77-4.48,23.54-9a8.59,8.59,0,0,0,1.56-1c.4,0,.85.17,1.45-.51l-1.41.54c-4.43,1.35-8.87,2.71-13.3,4-1.76.53-3.56.93-5.31,1.49-6.24,2-12.52,3.9-18.64,6.29-1.41.56-2.89.95-4.29,1.53-.63.26-1.11.91-1.75,1.13s-1.3-.08-1.87.1a5.05,5.05,0,0,0-2.79,1.75,1.94,1.94,0,0,1-1.78.78,2.86,2.86,0,0,1-.3-1c0-.22.36-.52.62-.62,1.27-.5,2.55-1,3.83-1.42,6.17-2.22,12.31-4.55,18.53-6.64,5.76-1.94,11.61-3.61,17.4-5.45,5.49-1.73,11-3.52,16.44-5.31,3.27-1.07,6.52-2.21,9.79-3.28a165.82,165.82,0,0,0,17-6.63,14.35,14.35,0,0,1,2-.71c.15,0,.46.16.55.33s.05.56-.07.64a8.93,8.93,0,0,1-1.67.89c-3.65,1.43-7.32,2.81-11,4.24A7.59,7.59,0,0,0,152,128.3c-1.78,1.45-3.93,2.12-6,3a1.16,1.16,0,0,1-.91,0c-.74-.51-1.37-.15-2,.11-4.76,1.87-9.52,3.76-14.3,5.6-2.39.93-4.8,1.76-7.2,2.65q-2.92,1.08-5.82,2.19l-19.5,7.47q-6.93,2.67-13.86,5.38c-2.83,1.1-5.67,2.17-8.47,3.35s-5.39,2.43-8.1,3.6a2.67,2.67,0,0,0-1.67,2.41,34.72,34.72,0,0,1-2.73,9.17,89.89,89.89,0,0,0-4,11.52,45.8,45.8,0,0,1-1.8,5.21,55.16,55.16,0,0,0-2.75,8.69,22.78,22.78,0,0,1-.84,2.49,7,7,0,0,0-.14,1c.91-.08,1.09-.78,1.5-1.2a6.68,6.68,0,0,1,1.21-1.11.89.89,0,0,1,.85.15,1,1,0,0,1,.21.84,1.77,1.77,0,0,1-.47.81c-1.07,1.19-2.17,2.35-3.23,3.54-1.57,1.77-2.56,1.7-3.51-.46a27.46,27.46,0,0,1-1.28-4.1.9.9,0,0,1,.45-.72,1,1,0,0,1,.83.27,11.91,11.91,0,0,1,.84,1.43c.6-.1.44-.61.56-.93,1.18-3.23,2.27-6.49,3.51-9.7a84.17,84.17,0,0,0,3.27-9.52c.88-3.43,2.5-6.58,3.72-9.88.58-1.57,1.17-3.14,1.69-4.74a6.73,6.73,0,0,0,.46-2.74c-.49-.54-1-.32-1.39-.13-1.75.78-3.51,1.56-5.25,2.36l-8.48,4a3.16,3.16,0,0,1-2.27.55,26.41,26.41,0,0,1,2.44-1.48c3.09-1.49,6.21-2.92,9.32-4.37,1.59-.75,3.19-1.47,4.77-2.25.83-.42,1.41-1,1-2.11a3.94,3.94,0,0,0-2.78.53c-2.5,1.05-5,2.09-7.52,3.12-.5.2-1.28.13-1.54.48-.94,1.24-2.41,1.52-3.62,2.22a10.65,10.65,0,0,1-2.45.86c-.77.23-1.32,1.12-2.06,1.54-2.92,1.64-5.88,3.19-8.81,4.81a47.11,47.11,0,0,0-5.89,3.57c-.21.17-.4.37-.6.56a1.14,1.14,0,0,0,1,0c1-.48,2-1,3-1.47,3.24-1.54,6.47-3.11,9.73-4.59C42.35,171.62,43.74,171.25,45.08,170.78ZM71,121.06a47.1,47.1,0,0,0,2.29-8.57,1.69,1.69,0,0,0-.62-1.49,26.2,26.2,0,0,0-2.85-2.18c-2.17-1.34-4.38-2.63-6.61-3.88a67.49,67.49,0,0,1-7.53-5.13q-4-3-7.94-6.19c-2.75-2.19-5.52-4.37-8.16-6.68C36,83.83,32.67,80.46,28.6,78c-1.74-1-3.37-2.3-5.2-3.23A14.61,14.61,0,0,0,26,77.52a86.72,86.72,0,0,1,8.41,7.85c1.72,2,3.46,4,5.11,6a81.1,81.1,0,0,0,13.53,12.85q3.87,3,7.57,6.26a73.88,73.88,0,0,1,9.4,9.89A4.29,4.29,0,0,0,71,121.06ZM14.79,64.79a1.84,1.84,0,0,0-1.11-2c-.27-.13-.59-.26-.75.35Z"/><path d="M90.39,281c-.22.23-.4.53-.67.66-1.43.75-1.46,1.91-1.08,3.4a8.53,8.53,0,0,0,1.41-.25c2.56-.94,5.1-1.9,7.65-2.85,1.43-.54,2.85-1.08,4.28-1.59,6.25-2.23,12.5-4.48,18.78-6.64,2.95-1,5.95-1.87,8.94-2.77a20.25,20.25,0,0,1,2.06-.4c.18.72-.32.76-.64.87-3.94,1.3-7.9,2.57-11.84,3.9s-7.57,2.59-11.33,3.94c-5.42,2-10.82,4-16.22,6-1,.35-1.88.82-2.82,1.23,0,1,0,1.9.12,2.77.19,2,.42,4,.63,6a15.72,15.72,0,0,0,.16,1.67c.81,4,.15,8-.49,11.92-.29,1.82-.61,3.63-.79,5.46a73.59,73.59,0,0,1-4.38,18.14,1.93,1.93,0,0,1-.2.44c-2.32,3.88-3.44,8.26-5.18,12.38a8.61,8.61,0,0,0-.49,3.51c2.26-1.51,4.14-3.09,6.12-4.54s3.83-3,5.76-4.56a1.24,1.24,0,0,1-.23,1.75A15.62,15.62,0,0,1,88,343.12q-4.68,3.75-9.41,7.45a10.09,10.09,0,0,1-1.6,1.06,1.44,1.44,0,0,1-2.06-.62,20,20,0,0,1-2.12-6.84,2,2,0,0,1,.2-.91.51.51,0,0,1,.35-.28c.21,0,.53.09.6.23a7.67,7.67,0,0,1,.46,1.35,9.75,9.75,0,0,0,.94,2.85c.66.15.79-.26.93-.62.75-2,1.46-4.07,2.25-6.08,1.06-2.68,2.11-5.36,3.29-8a45.32,45.32,0,0,0,3.3-9.5c.31-1.49.77-3,1.07-4.44a22.92,22.92,0,0,0,.58-4,32.13,32.13,0,0,1,.54-5c.42-2.53.78-5.07,1-7.61a19.62,19.62,0,0,0-.05-3.83c-.27-3-.61-6.05-.94-9.07-.07-.62-.23-1.22-.38-2a11.36,11.36,0,0,0-1.48.34c-3.6,1.36-7.18,2.73-10.77,4.11q-4.14,1.59-8.27,3.22-3.47,1.37-6.9,2.77c-3.92,1.63-7.85,3.22-11.73,4.93-1.67.74-3.24,1.74-4.85,2.63-.62.35-1.21.75-1.81,1.12a1.57,1.57,0,0,0-2-.4c-1.91,1-3.86,1.95-5.73,3-4.7,2.73-9.4,5.47-14,8.3a45.55,45.55,0,0,0-7.87,5.9,5.13,5.13,0,0,1-.71.47.7.7,0,0,1,0-1.14,18.85,18.85,0,0,1,2.61-2.45c3.11-2.12,6.24-4.21,9.45-6.17,2-1.25,4.22-2.26,6.32-3.4a7.08,7.08,0,0,0,2-1.47l-2.22.4c-.08-.82.52-.81.89-1,3.27-1.3,6.54-2.61,9.82-3.87,3.6-1.39,6.89-3.39,10.32-5.1,3.79-1.89,7.55-3.87,11.32-5.81.49-.26,1-.51,1.47-.8,1.49-.93,2.93-1.94,4.46-2.8,2.92-1.66,5.9-3.23,8.84-4.85a4.21,4.21,0,0,0,2-1.68,2.75,2.75,0,0,1,1.28-1c1.24-.55,2.54-1,3.78-1.53s2.15-1,3.23-1.53a10.75,10.75,0,0,0,.1-1.8c-.5-3.93,0-7.84.32-11.74.16-2.16.44-4.3.79-6.43C89.08,249.91,91,244.64,96,235a74.58,74.58,0,0,1,6.76-10.48c5.81-7.75,11.28-15.74,16.71-23.75,2-2.92,3.79-5.93,5.5-9a24.55,24.55,0,0,0,2.63-6.93,5.74,5.74,0,0,0,.06-1.09c-.31-.07-.49-.17-.6-.12-1.17.52-2.34,1-3.49,1.61-.5.24-.93.65-1.45.84A1.47,1.47,0,0,1,121,186c-.34-.2-.2-.93.25-1.24a11.52,11.52,0,0,1,2.06-1.2,50.34,50.34,0,0,1,6.12-2.12c3.73-.91,7.51-1.59,11.28-2.34a3.82,3.82,0,0,1,1.43,0,1,1,0,0,1,.62.61.93.93,0,0,1-.33.8,11.5,11.5,0,0,1-2,.83c-1,.33-2.09,1-3.15,0a.35.35,0,0,0-.23-.06,21.54,21.54,0,0,0-6.54,1.4,1.59,1.59,0,0,0-.73.89,14.12,14.12,0,0,0-.42,1.87c-1,5-3.62,9.22-6.34,13.37-2.33,3.54-4.87,6.94-7.3,10.42-1,1.37-1.86,2.8-2.84,4.16-2.29,3.18-4.61,6.34-6.93,9.5-1.33,1.81-2.69,3.58-4,5.39-.57.77-1.14,1.55-1.64,2.37a93.37,93.37,0,0,0-8.87,18.6c-.45,1.35-.69,2.78-1,4.16l1,.87c-.3.29-.56.59-.86.84a3.2,3.2,0,0,0-1.07,2.07,46.93,46.93,0,0,0-1.15,10.24c.07,1.66-.33,3.34-.41,5s0,3.19,0,4.79a4.56,4.56,0,0,0,.34,1,5.66,5.66,0,0,0,1.13-.28c2.21-1.11,4.4-2.27,6.62-3.35a45.23,45.23,0,0,0,4.89-2.53c.5-.34,1.23-.3,1.82-.54a6.34,6.34,0,0,0,1.13-.78l0,0a1.4,1.4,0,0,1-.76,1.56c-2.87,1.56-5.82,3-8.8,4.3-1.95.87-3.85,1.88-5.82,2.86v1.59l1.93-.06Zm-3.84,2.71a2.92,2.92,0,0,0-2.17.49c-4.74,2.11-9.48,4.22-14.18,6.4-4.42,2.05-8.8,4.18-13.19,6.29a4.81,4.81,0,0,0-2.43,1.86,8.52,8.52,0,0,0,1.13-.24c2.52-1,5.08-1.94,7.54-3.07,5-2.31,10.22-4.09,15.31-6.2,2.36-1,4.75-1.88,7.14-2.8a1.47,1.47,0,0,0,1-1.66A9.74,9.74,0,0,0,86.55,283.67Zm-11.82,4.18L86,282.6a.67.67,0,0,0,.2-.12c.45-.46.62-.93,0-1.37C84.13,281.76,76.1,286.18,74.73,287.85Z"/><path d="M227.61,307.67c-1,0-1.59-.7-2.29-1.2-2-1.46-4-3-6-4.48-2.06.33-3.84,1.47-5.77,2.19s-4,1.7-5.91,2.66-3.6,1.91-5.83,3.11c.39-.69.46-1,.67-1.18a19.4,19.4,0,0,1,3-2c3-1.42,6.14-2.71,9.21-4.06l3.44-1.52a8.49,8.49,0,0,0-1-1.22,68.82,68.82,0,0,1-15.46-19.73,44.16,44.16,0,0,0-4.6-6.72,60.47,60.47,0,0,0-5-5.46,32.65,32.65,0,0,0-10.38-6.76,71.74,71.74,0,0,0-15-4.23c-.54-.09-1.1-.09-1.7-.13-.94,1.44-1,3.06-1.15,4.62a5.79,5.79,0,0,0,.05,1.44,11.69,11.69,0,0,1-.87,6.34,7.6,7.6,0,0,0-.55,1.58c-.82,4.66-3.82,8-6.78,11.39a18,18,0,0,1-3,2.33c-.64.47-1.3.9-1.87,1.28,0,.71.4.79.75.94,2.07.87,4.14,1.72,6.2,2.6a2.92,2.92,0,0,1,1,.67.74.74,0,0,1,.08.65c-.08.18-.38.43-.52.4a13.36,13.36,0,0,1-2-.63c-1.85-.74-3.69-1.52-5.53-2.3a3.33,3.33,0,0,0-4,.61c-.14.14-.43.13-.72.21-.62-.85-.23-1.9-.78-2.61,1.3-2.42,2.51-4.67,3.73-6.92a5.23,5.23,0,0,1,.55-.78c.4-.49.89-.62,1.23-.32s.34.86.1,1.3c-.35.62-.77,1.22-1.12,1.84-.67,1.18-1.32,2.36-1.93,3.47.32.54.63.35.87.2,1.29-.81,2.58-1.62,3.84-2.46a14.09,14.09,0,0,0,3.63-3.47c.8-1.1,1.62-2.18,2.45-3.26a15.62,15.62,0,0,0,2.1-4.56c.19-.52.26-1.09.47-1.61a14,14,0,0,0,1.13-7.73,11.25,11.25,0,0,1,.25-2.61,4.57,4.57,0,0,0,.1-2.48l-2.27-.08c-.25-.43.11-.56.37-.66.67-.25,1.35-.45,2.1-.69a8.8,8.8,0,0,0,.15-1.19,42.59,42.59,0,0,1,.51-7.65c.2-1.35.27-2.71.4-4.06,0-.56,0-1.13.15-1.68.66-3.53,1.38-7.06,2-10.6.26-1.49.37-3,.53-4.52s.32-3,.45-4.53c.11-1.35.23-2.71.23-4.06,0-3,0-5.93-.08-8.89a5,5,0,0,0-.18-.92,2.46,2.46,0,0,0-.78.13c-2.39,1.44-5.07,2.29-7.45,3.8-2.56,1.62-5.31,2.94-8,4.4-1.12.62-2.23,1.25-3.34,1.88-.28.16-.52.48-.8.51-1.37.15-2.2,1.16-3.22,1.89a2.74,2.74,0,0,1-.5.18l0-.64,0,0c.27-.16.77-.34.76-.5-.05-1.34,1-1.69,1.87-2.19l18.78-10.66a5.45,5.45,0,0,1,.62-.35,3.64,3.64,0,0,0,2.47-3.92,25.6,25.6,0,0,1,.4-4.05c.14-1.51.3-3,.37-4.54.14-3.28.25-6.55.34-9.83.06-2.56.09-5.12.11-7.68,0-1.6,0-3.19,0-4.79a4,4,0,0,0-.61-2.67,8,8,0,0,0-.82.89c-.9,1.31-1.77,2.66-2.68,4a4.32,4.32,0,0,1-1,1,1,1,0,0,1-.88,0,1.23,1.23,0,0,1-.36-.81,1.34,1.34,0,0,1,.16-.69,14.61,14.61,0,0,1,3.5-5.4,42.07,42.07,0,0,0,4.68-5.13c.54-.68,1.14-1.32,1.81-2.1a6.89,6.89,0,0,1,1.09,1,6.5,6.5,0,0,1,.54,1.33,11.31,11.31,0,0,0,4.29,5.34,27.35,27.35,0,0,1,2.83,2.22c.58.51.6,1.11.21,1.45s-1,.32-1.61-.33a12.47,12.47,0,0,0-1.81-1.89,17.32,17.32,0,0,1-4.94-5.49c-.19-.33-.44-.62-.75-1.07-1.45,1.26-2.67,2.38-2.34,4.46a13.7,13.7,0,0,1,0,4.78,3.42,3.42,0,0,0-.05,1c.42,6.09-.3,12.15-.43,18.23a69.87,69.87,0,0,1-.68,9.8,2.07,2.07,0,0,0,.4,2,6.12,6.12,0,0,0,1.19-.47c2.16-1.38,4.3-2.78,6.44-4.19a3.11,3.11,0,0,1,2.16-.86l0,0a7.49,7.49,0,0,1-1.11,1.2c-2.57,1.76-5.16,3.5-7.78,5.18a2.66,2.66,0,0,0-1.26,2.13,38.6,38.6,0,0,0-.19,6.71,54.45,54.45,0,0,1-.42,10.29c-.24,1.66-.19,3.35-.27,5,0,.4,0,.8-.1,1.2-.58,3.14-1.11,6.29-1.79,9.41a45.17,45.17,0,0,0-.94,6.64c-.1,1.67-.34,3.34-.49,5a17,17,0,0,0,.25,5.39c.77.16,1.53.35,2.31.48a72.7,72.7,0,0,1,15.63,4.54,36.27,36.27,0,0,1,12.89,9.38,58.67,58.67,0,0,1,6.71,9.33c1.85,3,3.64,6,5.63,8.92a60.46,60.46,0,0,0,10.53,11.44,2,2,0,0,0,2.4.32c1.92-.78,3.88-1.47,5.83-2.18.11,0,.27.08.61.19a21,21,0,0,1-3.25,1.63c-1,.55-2,1-3.16,1.54a6.58,6.58,0,0,0,.85,1.18c1.43,1.16,2.91,2.25,4.34,3.42.59.48,1.41.82,1.48,1.77Zm-61.39-101c-.11-.07-.2-.15-.22-.14a6,6,0,0,0-.51.37s.13.14.15.13Z"/><path d="M23.75,309.17A17.42,17.42,0,0,0,19.08,311a18.66,18.66,0,0,1-2.16,1c-2.8,1.16-5.38,2.77-8.05,4.2-.46.24-.92.71-1.5.23-.07-.62.38-.84.79-1.08a161,161,0,0,1,23-10.53A69.72,69.72,0,0,0,39,301.17c3.67-1.92,7.44-3.65,11.18-5.44a4.11,4.11,0,0,1,.94-.17l0,0c-1.65,1.46-3.78,2.05-5.65,3.11a25.94,25.94,0,0,0-3.8,2c-2.25,1.88-5,2.81-7.49,4.13-3.19,1.65-6.39,3.29-9.44,5.2s-6.14,3.4-9.27,5c-3.71,1.87-7.41,3.78-11.1,5.68-.28.15-.52.36-.91.62a9.33,9.33,0,0,0,.9,1.12c4.66,4,9,8.47,13.28,12.85a85.69,85.69,0,0,0,9.23,8A117.07,117.07,0,0,1,40,354.39c2.9,3,5.58,6.17,8.37,9.25,2.53,2.79,5,5.58,7.61,8.33,1.9,2,3.82,4.09,5.79,6.07a6.42,6.42,0,0,0,3.67,2.25,7,7,0,0,0,1.59,3A.62.62,0,0,1,67,384a.65.65,0,0,1-.62.12,24.22,24.22,0,0,1-2.61-2.1A275.81,275.81,0,0,1,45.14,361.6c-2.67-3.21-5.81-6-8.75-8.89C32,348.26,26.65,344.93,22,340.8c-2.28-2-4.49-4.1-6.69-6.2-3.18-3-6.32-6.12-9.5-9.16a17,17,0,0,0-1.73-1.26c-.51.52,0,.79.17,1q4.93,4.74,9.89,9.45c2.51,2.36,5.09,4.63,7.55,7a34.14,34.14,0,0,1,3.63,4.15,76.91,76.91,0,0,0,10.38,11A57.47,57.47,0,0,1,46.55,369.5a63.46,63.46,0,0,0,9.93,12.29,85.46,85.46,0,0,1,8.78,9.84,15.47,15.47,0,0,0,3.27,3.14c2.2,1.62,2.11,1.31,2,3.87,0,.72.11,1.44.09,2.16a7.24,7.24,0,0,1-.32,1.32c-1-.14-.3-.83-.58-1.12a7.38,7.38,0,0,1-1.13-1.18c-.23-.38-.06-1-.28-1.38-.81-1.34-1.14-3-2.5-4a10.41,10.41,0,0,1-2.21-2.51,53.35,53.35,0,0,0-7.52-8.7,71.12,71.12,0,0,1-11-13.6,47.49,47.49,0,0,0-8.35-10.19c-2-1.86-4-3.72-6-5.54-1.83-1.65-1.85-1.63-4.34-1.74l1.51-.6a4.25,4.25,0,0,0-.45-1.05c-2.51-3.12-4.86-6.37-7.86-9.06-1.9-1.71-3.85-3.38-5.72-5.12-2.93-2.72-5.81-5.5-8.72-8.24A14,14,0,0,0,2.6,326,4.76,4.76,0,0,0,2,328.82c0,.86,0,1.73,0,2.6-.67,0-.78-.43-.8-.78-.1-1.43-.15-2.87-.21-4.3,0-.56.17-1.35-.12-1.62-1.33-1.25.44-2.3.09-3.44,0-.11.1-.32.21-.41,1.68-1.43,1.41-3.46,1.63-5.32a3.71,3.71,0,0,0-.78-2.48,12.71,12.71,0,0,1-2-8.24,41.87,41.87,0,0,1,2.72-12.38c.05-.13.2-.23.41-.44a2.75,2.75,0,0,1,0,2.05c-.46,1.78-1,3.55-1.39,5.34a25.08,25.08,0,0,0-.67,7.86A9.62,9.62,0,0,0,2.63,312a7.11,7.11,0,0,1,1.11,5.5,13.38,13.38,0,0,0-.09,1.8,5.11,5.11,0,0,0,1.25-.21c1.16-.53,2.3-1.11,3.44-1.7,4.05-2.09,8.11-4.16,12.14-6.29a9.93,9.93,0,0,0,3.24-2c.83-.13.83-.13,1.47-.93Z"/><path d="M141.48,279.88c-.42-.09-.52-.08-.57-.13-2.18-1.68-4.75-1.81-7.32-1.71a19.61,19.61,0,0,0-13.07,5.24c-1.29,1.19-2.58,2.4-3.78,3.69a7.45,7.45,0,0,0-2,7.07c.53,2.34,1,4.69,1.44,7A6.39,6.39,0,0,0,120,306a12.78,12.78,0,0,0,13.21-1,10.38,10.38,0,0,0,3.54-4.17,6.09,6.09,0,0,0,.53-2.29c.11-1.36.08-2.72.14-4.08a8.43,8.43,0,0,0-1.89-6c-.72-.86-1.42-1.73-2.17-2.56a3.19,3.19,0,0,0-3-1.06,39.08,39.08,0,0,0-4.7.94,8.91,8.91,0,0,0-5.82,5.63c-.12.3-.18.62-.29.92a6.38,6.38,0,0,0,1.17,6.71,5,5,0,0,0,4.8,2.08,11.16,11.16,0,0,0,6.44-2.94,2.75,2.75,0,0,0,.93-2.35,14.24,14.24,0,0,1-.16-2.15,5.36,5.36,0,0,0-1.85-4,3.25,3.25,0,0,0-4.16-.56,7.17,7.17,0,0,0-3.3,6.53c.1,1.47.7,1.89,2.35,1.86.08,0,.18-.05.23,0,.2.12.47.22.56.4a.85.85,0,0,1-.06.66,1.47,1.47,0,0,1-1.61.78,2.72,2.72,0,0,1-2.16-1.36,8,8,0,0,1-.92-2.44,8.46,8.46,0,0,1,4.11-8.1,4.54,4.54,0,0,1,5.91.85c1.58,1.55,2.8,3.28,2.63,5.68a17.45,17.45,0,0,0,.17,2.15A4.59,4.59,0,0,1,133,299.9,12.41,12.41,0,0,1,125.6,303a6,6,0,0,1-5.67-2.51c-.42-.58-.82-1.19-1.25-1.76a6.52,6.52,0,0,1-1-5.91,15.89,15.89,0,0,1,2.54-5.39,8.55,8.55,0,0,1,4.6-3.28,24.63,24.63,0,0,1,5.9-1,4.31,4.31,0,0,1,3.65,1.47c1.29,1.52,2.51,3.11,3.66,4.74a7.77,7.77,0,0,1,1.06,4.84c0,1.52-.1,3-.12,4.56a5.75,5.75,0,0,1-.75,2.74,18,18,0,0,1-4.05,5,11.24,11.24,0,0,1-5.51,2.21,13.2,13.2,0,0,1-9.3-1.35,8.55,8.55,0,0,1-4.67-6.3c-.41-2.61-.92-5.2-1.45-7.78a7.38,7.38,0,0,1,1.63-6.52,37,37,0,0,1,6.51-6.36c5-3.54,10.52-4.5,16.44-3.8a12.3,12.3,0,0,1,3.19,1,1.85,1.85,0,0,1,.82,1.09C141.88,279,141.61,279.43,141.48,279.88Z"/><path d="M63,217.56a2.79,2.79,0,0,0,.22-.85L61.87,216q-1.12,1.13-2.31,2.16l.92.28c-.3.46-.36.64-.48.72q-3.09,2.05-6.21,4.08a4,4,0,0,1-.77.26,14.43,14.43,0,0,1-3.56-5,1.34,1.34,0,0,1,.52-1.67,2.62,2.62,0,0,1,3-.66l.17.05a3.11,3.11,0,0,1,.08-.44,2.72,2.72,0,0,1,.6-1.13,3,3,0,0,1,.83-.79,5.3,5.3,0,0,0,.43-.36c.26-.22.51-.45.76-.68l.12-.13L54.85,212c1.5-1,2.26-2.6,3.26-4l-1.28-2a3.89,3.89,0,0,0-2.08,1.39c-.28.29-.54.69-.88.78-1.24.32-2,1.28-2.91,2-1.11.92-2.25,1.8-3.36,2.72a2.25,2.25,0,0,1-2.24.41,21.07,21.07,0,0,0-2.33-.51c-.37-.06-.77.48-.64.83.3.81.63,1.61,1,2.43a11.8,11.8,0,0,0-1.41,1.44,1.39,1.39,0,0,0-.13,1.08c0,.18.53.35.8.33.55,0,1.09-.23,1.64-.32.13,0,.28.12.5.22-.14.43-.29.86-.52,1.54,1.19,1,2.28,1.93,3.4,2.81a22.35,22.35,0,0,1,4.17,4,2.88,2.88,0,0,0,1,1,7.21,7.21,0,0,1,2.75,2.59c.91,1.11,1.86,2.19,2.87,3.21a4.08,4.08,0,0,0,1.42.85,1,1,0,0,0,.86-.16,1,1,0,0,0,.15-.82c0-.29-.43-.6-.37-.82a2,2,0,0,0-.71-1.92,3.8,3.8,0,0,1-.79-1.43,4.38,4.38,0,0,0-1.27-2c-.68-.66-1.32-1.36-2-2.09a9,9,0,0,1,6-4.45c1.26-.25,1.66-.77,1.17-2A1.51,1.51,0,0,1,63,217.56Z"/><path d="M63.81,259.87a4.3,4.3,0,0,1-.53-.61,36.26,36.26,0,0,0-5.6-7.75c-2.34-2.63-4.61-5.33-7.08-7.84a87,87,0,0,0-7.39-6.84,121.89,121.89,0,0,1-15.37-15.11,34.19,34.19,0,0,0-3-2.8c-1.64-1.52-3.34-3-4.95-4.53a11.58,11.58,0,0,1-3.23-5,9.32,9.32,0,0,0-3.79-4.82,12.08,12.08,0,0,1-3.05-3,25.22,25.22,0,0,0-2.12-2.28,11.77,11.77,0,0,1-1.51-1.82,2.44,2.44,0,0,0-2-1.48,1.53,1.53,0,0,1-.91-.68,5.66,5.66,0,0,1-1.2-3.09,23.35,23.35,0,0,1,.1-3.35c.45-3.57,1-7.13,1.48-10.69.06-.37.18-.73.27-1.1.72.12.58.61.57.94a62.86,62.86,0,0,1-1,9.28,23.89,23.89,0,0,0-.36,4,4.88,4.88,0,0,0,.64,2c.15.31.58.7.88.69,1.09,0,1.59.72,2,1.48a10.74,10.74,0,0,0,2.56,3.13,14,14,0,0,1,1.95,2.42,8.23,8.23,0,0,0,2.42,2.28,9.35,9.35,0,0,1,4.07,5.18,14.48,14.48,0,0,0,3.95,5.92c1.5,1.43,3,2.89,4.56,4.25a71.1,71.1,0,0,1,6.47,6.75,65,65,0,0,0,8.11,7.8,113.24,113.24,0,0,1,15.53,15c1.7,2,3.47,4,5.18,6a17,17,0,0,1,2.71,4.51A.74.74,0,0,1,63.81,259.87Z"/><path d="M134.26,175.33a10.79,10.79,0,0,1,.25-1.51c.33-1,1.12-1.22,2.05-.55.18.13.33.32.6.57.56-.21,1.13-.45,1.73-.65.82-.28,1.65-.57,2.5-.79a.68.68,0,0,1,.88.59,1,1,0,0,1-.4.76,16.4,16.4,0,0,1-2.18,1c-2.34.87-4.35,2.36-6.57,3.44a21.42,21.42,0,0,1-2.41,1,1.51,1.51,0,0,1-1.87-.68c-.77-1.21-1.6-2.39-2.27-3.65a6.51,6.51,0,0,1-.65-5.75,16.14,16.14,0,0,0,.56-3.18l1.82-.08c.56-.45,1.34-1.14,2.17-1.75s1.72-1.17,2.6-1.7a1.71,1.71,0,0,1,.92-.21c.18,0,.38.22.51.39a.43.43,0,0,1-.13.4c-.72.51-1.49.94-2.18,1.48-1.26,1-2.51,1.9-2.95,3.63a4.13,4.13,0,0,0-.27,2.05c.15.61.29,1.23.48,2a5.09,5.09,0,0,0,1.1-.35c1.5-.92,3-1.9,4.47-2.8a7.72,7.72,0,0,1,1.76-.71.67.67,0,0,1,.58.28.64.64,0,0,1-.06.63,19,19,0,0,1-2,1.34,29.51,29.51,0,0,0-5.26,3.74,1.18,1.18,0,0,0-.35.82c0,.47.45.62.86.66A6,6,0,0,0,134.26,175.33ZM127.63,173a1.72,1.72,0,0,0,0-.68c-.09-.23-.09-.63-.54-.55C127.05,172.22,127,172.7,127.63,173Z"/><path d="M224.32,159.11c-.52-.42-1-.73-1.35-1.11a45.72,45.72,0,0,0-8-6.44c-3.9-2.51-7.79-5-11.82-7.32-3.06-1.72-6.3-3.12-9.52-4.53-4.76-2.08-9.59-4-14.35-6.08a29.89,29.89,0,0,1-8.15-5,7.1,7.1,0,0,1-2.25-3.33c-.07-.24.07-.54.17-1.21a15.77,15.77,0,0,1,1.14,1.62,9.7,9.7,0,0,0,4,4c2.78,1.56,5.64,3,8.56,4.3,5,2.23,10.2,4.21,15.22,6.48a96.67,96.67,0,0,1,14.5,7.94c2,1.35,4,2.61,5.94,4.07,2.07,1.59,4.28,3.07,5.84,5.24A1,1,0,0,1,224.32,159.11Z"/><path d="M188.76,41.91l1.37.88a17.75,17.75,0,0,1-.06-1.83,2.53,2.53,0,0,1,2-2.64c1.38-.27,2,.06,2.88,1.48.12.2.27.38.43.61,1,.22,1.64-.39,2.35-.9s1.56-1.1,2.36-1.62a.43.43,0,0,1,.42.08c.12.17.27.47.2.61a4.44,4.44,0,0,1-.8,1.16,13.33,13.33,0,0,1-4.74,2.74c-.59.23-1.21.39-1.81.62a5.77,5.77,0,0,0-2.8,2.15A9.28,9.28,0,0,1,189,47.07a10.63,10.63,0,0,1-1.95,1.36,1.5,1.5,0,0,1-1.79,0c-.41-.34-.36-.91.14-1.75.12-.2.28-.38.41-.59.81-1.34.75-1.49-.81-2.2a3,3,0,0,1-1.87-3A2.67,2.67,0,0,1,185,38.3a2.13,2.13,0,0,1,1.15,0,1,1,0,0,1,.58,1.36c-.24.4-.65.7-.88,1.1a1.63,1.63,0,0,0-.28,1.08c.15.53.69.61,1.19.58a4.93,4.93,0,0,0,.93-.18Zm4.5-1.68c-.23-.26-.4-.57-.51-.55-.28,0-.67.18-.77.4a2.61,2.61,0,0,0-.08,1.09s.34.14.4.08C192.63,40.94,192.92,40.6,193.26,40.23Z"/><path d="M169.12,157.08c-1.12.3-1.85.56-2.6.68a1.53,1.53,0,0,1-1.05-.34.84.84,0,0,1,.21-1.26c1.31-.91,2.65-1.77,4-2.65,1.06-.69,2.16-1.34,3.21-2.06a3.08,3.08,0,0,1,3.16-.26c.11.05.16.26.26.43l-1.81,3.22c-1,.63-1.74-1.29-2.79-.26,0,.15-.11.33,0,.43.74,1.3.72,1.58-.15,2.47a10.08,10.08,0,0,1-3.42,2.16,15,15,0,0,1-3,.91,5.86,5.86,0,0,1-2.36-.06,2.26,2.26,0,0,1-1.82-2.7,8.31,8.31,0,0,1,4.23-6.33,1.09,1.09,0,0,1,.69-.11.85.85,0,0,1,.53.39.84.84,0,0,1,0,.66,1.21,1.21,0,0,1-.54.43c-1.61.69-2.34,2.12-3,3.57a3.25,3.25,0,0,0-.27.92,1.51,1.51,0,0,0,1.8,1.89A10.39,10.39,0,0,0,169.12,157.08Z"/><path d="M178.9,197.6a4.53,4.53,0,0,1,.76-.91c2.27-1.62,4.57-3.2,6.86-4.79l8.65-6c1.5-1,3-2.07,4.54-3.1,3.31-2.23,6.65-4.42,9.93-6.68,2-1.4,4-2.9,6-4.35.45-.33.89-.68,1.35-1a27.09,27.09,0,0,0,4.31-3.4c.72-.75.77-.71,2.22-.86a4.4,4.4,0,0,1-.57.82,114.42,114.42,0,0,1-12.28,9.15c-2.76,1.76-5.45,3.63-8.15,5.48q-7.42,5.07-14.82,10.16c-2.43,1.67-4.87,3.33-7.29,5a2.07,2.07,0,0,1-1.56.47Z"/><path d="M102.46,60.75c1.88-.56,2.67-1.3,3.09-2.74.32-1.07.59-2.15,1-3.2a3.65,3.65,0,0,1,1.78-2.15c.13-.06.38-.07.45,0a.93.93,0,0,1,.24.59,1.37,1.37,0,0,1-.29.64,7.94,7.94,0,0,0-1.28,3.32c-.4,2.23-2,3.56-3.82,4.61a3.4,3.4,0,0,1-2.55,0c-1-.23-1.35-1-1.7-1.93a6.29,6.29,0,0,0-1.21.44c-1.37.88-1.4,1.49-.22,2.57a7.19,7.19,0,0,1,1,1c.1.13,0,.42,0,.87l-4.42-2.68c-.15-1-.34-2.08-.46-3.17a2.07,2.07,0,0,1,.27-.83c.26.12.62.17.76.37a11.2,11.2,0,0,1,.8,1.55c1.42,0,2.31-1,3.23-1.81a9.85,9.85,0,0,0,.7-1,1.91,1.91,0,0,1,2.39-.41,1.67,1.67,0,0,1,.8,2C102.81,59.49,102.64,60.07,102.46,60.75Zm-1.11-2c.06-.12.19-.25.17-.35s-.19-.16-.29-.24c-.07.11-.2.24-.18.35S101.24,58.72,101.35,58.8Z"/><path d="M226.33,9.18c1,.13,1.16.92,1.11,1.61a20.73,20.73,0,0,1-.53,3.78,49.51,49.51,0,0,0-1.19,11.63A9,9,0,0,0,227,30.76c.61,1.11,1.29,2.18,1.9,3.2a6.3,6.3,0,0,0,3.2-.43,13,13,0,0,1,1.62-.34c.1,0,.29.14.35.26s.07.37,0,.44a6.75,6.75,0,0,1-4.23,2,1.87,1.87,0,0,1-1.18-.66A18.57,18.57,0,0,1,226.8,33c-.54-.77-1-1.63-1.5-2.51l-1,0a48.73,48.73,0,0,1,.07-6.4,119.08,119.08,0,0,0,.8-11.92A3.9,3.9,0,0,1,226.33,9.18Z"/><path d="M84.1,179.34a4.88,4.88,0,0,1,1.5.26,16,16,0,0,1,2.55,1.75c1.42,1.23,1.39,1.27,3,1.6l0,.69,0,.63c1.11,1.37,2.78,1.65,4.1,2.43.21.72-.13,1.09-.69.91a17.3,17.3,0,0,1-2.83-1.23,14.45,14.45,0,0,1-1.71-1.2c-2.08,1-2.19,1.3-1.8,3.36a14.34,14.34,0,0,1,.33,2.6,7,7,0,0,1-.49,1.75c-.48-.34-.92-.49-1-.78q-1.05-2.42-2-4.89a2.09,2.09,0,0,1-.12-1.4c.54-1.17.07-2.17-.33-3.21a13.48,13.48,0,0,1-.67-1.8A5.89,5.89,0,0,1,84.1,179.34ZM86,181.58c.2,2,.35,2.36,1.55,3.51,1.17-.88,1.27-1.2.54-2A4.29,4.29,0,0,0,86,181.58Z"/><path d="M134.26,223.9c-.65,1.11-1.85,1.46-2.86,2.06-2.06,1.22-4.17,2.36-6.2,3.62-3.66,2.28-7.33,4.54-10.9,7a142.16,142.16,0,0,0-13.37,10.08c-.62.54-1.55.94-1.21,2.09,0,.14-.21.46-.39.55-1.62.86-3,2.21-4.76,2.71l0,0a13.35,13.35,0,0,1,3.68-4.64c3.27-2.57,6.56-5.11,9.91-7.57,2.44-1.79,5-3.49,7.51-5.13,3.63-2.33,7.31-4.57,11-6.82,1.77-1.09,3.58-2.11,5.37-3.16a3.53,3.53,0,0,1,2.23-.75Z"/><path d="M89,65.44a1.9,1.9,0,0,1-.51,2.39,4.59,4.59,0,0,1-3.61,1.57c-.32,0-.63,0-1,0a18.87,18.87,0,0,0-2.2,2.56,10.26,10.26,0,0,1-1.62,1.38.68.68,0,0,1-1-.4,1.2,1.2,0,0,1,.18-.85c.18-.23.59-.28.8-.5A19.9,19.9,0,0,0,82,69.42a.85.85,0,0,0-.8-1.32,9.83,9.83,0,0,0-1.19.13c-.63.08-1.26.19-1.9.25a2.48,2.48,0,0,1-2.67-1.18,2.91,2.91,0,0,1,.11-3.18,3.24,3.24,0,0,1,2.2-1.54c.3.65-.16.81-.42,1.06A2.71,2.71,0,0,0,76.5,66c.08.72.53,1.28,1.22,1.23,1.67-.12,3.33-.32,5-.56a1.86,1.86,0,0,0,.92-.7,11.94,11.94,0,0,0,.82-1.23,8.08,8.08,0,0,1,4.65.74ZM84.9,67.23a.8.8,0,0,0,.34.71,1.6,1.6,0,0,0,2-.73.69.69,0,0,0,0-.64,1.11,1.11,0,0,0-1.48-.23C85.35,66.54,84.94,66.92,84.9,67.23Z"/><path d="M228,255.93a8.8,8.8,0,0,1-.21-1.59,12.21,12.21,0,0,0-1-5.84,10.79,10.79,0,0,1-.32-7.73,32.12,32.12,0,0,0,1.69-8.42,10.59,10.59,0,0,0-.54-4.71,2.25,2.25,0,0,1,0-.82c.69,0,.83.39,1,.72a9.7,9.7,0,0,1,.84,5.85c-.31,2-.79,3.9-1.21,5.85-.12.55-.32,1.07-.48,1.61a9.24,9.24,0,0,0,.21,6.55,27.21,27.21,0,0,1,1.17,3.65,6.6,6.6,0,0,1-.24,4.23C228.78,255.5,228.43,255.62,228,255.93Z"/><path d="M199.06,57.31c.22-.41.26-.6.37-.66q7.73-4.12,15.83-7.47c1-.43,2-1.06,3-1.56,1.92-1,3.86-1.93,5.8-2.86a1.14,1.14,0,0,1,.87,0c.29.12.14.76-.25,1a15.2,15.2,0,0,1-1.67.94c-3.77,1.76-7.53,3.52-11.32,5.24S203.9,55.41,200,57.12A6.06,6.06,0,0,1,199.06,57.31Z"/><path d="M168.12,52.43a7.18,7.18,0,0,0,1.94,3.46,15.41,15.41,0,0,1,1.19,1.48.69.69,0,0,1-.12.64.72.72,0,0,1-.62.14,2.5,2.5,0,0,1-.8-.5,12.5,12.5,0,0,1-4-6.4,4,4,0,0,1,.44-3.45A1.92,1.92,0,0,1,168.8,47a4.93,4.93,0,0,1,.66.3,1.69,1.69,0,0,1,.87,2.22,8.51,8.51,0,0,1-1.12,1.81A10.16,10.16,0,0,1,168.12,52.43Zm-.56-2.08a1.42,1.42,0,0,0,.51-.06A1.47,1.47,0,0,0,169,49a.68.68,0,0,0-.11-.44.51.51,0,0,0-.36-.23c-.6,0-1.13.62-1.18,1.45C167.29,50,167.48,50.19,167.56,50.35Z"/><path d="M175.93,49a12.49,12.49,0,0,1-1.1,1.5,2.75,2.75,0,0,1-1.23.67,1.6,1.6,0,0,1-1.13-.2,1.86,1.86,0,0,1-.67-2.14c.17-.75.54-1.33,1.44-1.21.76.53-.22,1.24.25,1.78a.48.48,0,0,0,.74-.31c.12-.37.1-.79.19-1.17a1,1,0,0,1,1.42-.82c.61.18,1.2.45,1.82.58a1.06,1.06,0,0,0,1.4-.93,31.08,31.08,0,0,1,.68-3,11.8,11.8,0,0,1,1.2-2.31c.08-.14.53-.25.61-.17a1.34,1.34,0,0,1,.38.77,1.27,1.27,0,0,1-.22.67,9.65,9.65,0,0,0-.83,3.48c-.16,2.1-1.12,2.93-3.26,3C177.22,49.07,176.82,49,175.93,49Z"/><path d="M80.09,193.58a2.6,2.6,0,0,1-.13.64c-.33.82-.67,1.62-1,2.42a1.61,1.61,0,0,1-.34.62c-2.17,1.75-3.22,4.31-4.74,6.52a37.32,37.32,0,0,0-3.94,6.82,2.1,2.1,0,0,1-.38.6.52.52,0,0,1-.42.11c-.13,0-.34-.16-.35-.27a2.42,2.42,0,0,1,0-1.14,17.59,17.59,0,0,1,1.3-2.56c2-3.16,4.07-6.28,6.08-9.44.77-1.2,1.46-2.46,2.23-3.67a5.84,5.84,0,0,1,.95-1,.5.5,0,0,1,.45,0C79.91,193.23,80,193.41,80.09,193.58Z"/><path d="M97.77,176.32a.67.67,0,0,1-.37-1c.59-1.13,1.18-2.26,1.87-3.33q4.1-6.33,8.25-12.61a30.87,30.87,0,0,1,2.39-3,.62.62,0,0,1,.62-.05.66.66,0,0,1,.17.6,3.3,3.3,0,0,1-.49.82q-6.39,9-12.12,18.35C98.05,176.15,98,176.18,97.77,176.32Z"/><path d="M89,65.44l.06.07c-.52-1.21-.52-1.21-1.84-1.89,0-.16-.08-.38,0-.47a6.6,6.6,0,0,0,1.55-3.64,5.88,5.88,0,0,1,1.69-3.38c.35-.38.47-.38,1.61-.11-.5,1.53-2.12,2.68-1.66,4.66.29,0,.58,0,.87,0l1,0c-.2,1.09-1.24,1.66-1,2.76a19.26,19.26,0,0,1,.14,2.74,4,4,0,0,1-1.11-.09A9,9,0,0,1,89,65.44Z"/><path d="M203.9,25.8c.48-.44.94-.11,1.33.08a26.54,26.54,0,0,0,5.22,1.77,10.25,10.25,0,0,1,1.58.56c2.63,1.17,5.26,2.33,7.88,3.52,1.13.51,1.53,1.05,1.29,1.73a1.59,1.59,0,0,1-2.15,1.13,2.24,2.24,0,0,1,.08-.81.83.83,0,0,0-.33-1,17.15,17.15,0,0,0-1.71-.87c-4-1.71-7.93-3.41-11.89-5.13C204.71,26.52,204.08,26.46,203.9,25.8Z"/><path d="M104.06,183.88c4.77,0,8.92-2,13.18-3.47.83-.29,1.62-.7,2.45-1a7.42,7.42,0,0,1,1.3-.19c.31.66-.07.89-.41,1-1.15.54-2.3,1.11-3.49,1.54-2.93,1.06-5.85,2.11-8.82,3a11.72,11.72,0,0,1-3.3.34C104.41,185.19,103.87,184.9,104.06,183.88Z"/><path d="M31.87,45.55a8.38,8.38,0,0,1,3.32-2.17Q45.95,38.65,57,34.54c.09,0,.26.11.39.18s0,.21,0,.23Z"/><path d="M115.94,148.22c-.44.55-.89,1.09-1.31,1.65a8,8,0,0,0-.92,1.39,1.21,1.21,0,0,0,1.19,1.79,7.6,7.6,0,0,0,2.33-.4c1.62-.66,3.18-1.45,4.77-2.19.55-.26,1-.81,1.87-.34-.13.26-.2.59-.4.73a21.07,21.07,0,0,1-7.78,3.54,3.55,3.55,0,0,1-.47.06,2.84,2.84,0,0,1-2.91-1.24,2.61,2.61,0,0,1,.53-3.09,19.1,19.1,0,0,1,1.82-1.89,3.54,3.54,0,0,1,1-.43Z"/><path d="M230.17,282.31a6.39,6.39,0,0,1,1,3.89,15.85,15.85,0,0,0,1.42,6.26c.65,1.46,1.33,2.9,2,4.36a7.13,7.13,0,0,1,.45,1.35c0,.18-.14.4-.28.76-.31-.27-.61-.42-.75-.66a41.09,41.09,0,0,1-3.5-7.33,17.17,17.17,0,0,1-.69-7.33A8.29,8.29,0,0,1,230.17,282.31Z"/><path d="M160.13,45.8c-.08.75-.18,1.28-.2,1.83a2.21,2.21,0,0,0,1.74,2.5c.68.22,1.41.3,2.09.5a1.35,1.35,0,0,1,.84,2.08,9.78,9.78,0,0,1-3.29,3,.43.43,0,0,1-.44,0c-.15-.16-.34-.41-.31-.59A2.75,2.75,0,0,1,161,54c.42-.55.91-1,1.49-1.69-.54-.36-.9-.62-1.28-.86a10.76,10.76,0,0,1-2-1.3,2.92,2.92,0,0,1,.13-4.26C159.47,45.84,159.68,45.87,160.13,45.8Z"/><path d="M4.32,260.71q-.81,10.57-1.63,21.16a1.79,1.79,0,0,1-.31.57c-.73-.21-.52-.79-.51-1.19.06-2.39.07-4.79.29-7.17.38-4.13.9-8.25,1.37-12.37a10.2,10.2,0,0,1,.27-1.09Z"/><path d="M158.66,160.64c-.28.44-.42.88-.71,1a5,5,0,0,1-1.78.67A12.55,12.55,0,0,0,152,164.1c-1.33.72-2.65,1.48-4,2.17-1,.53-1.84.48-1.88,0-.07-.84.7-1,1.23-1.24,2.68-1.42,5.36-2.84,8.07-4.21a8.51,8.51,0,0,1,2.25-.75C157.91,160,158.26,160.38,158.66,160.64Z"/><path d="M5.63,219.83a13.54,13.54,0,0,1-1.31-2.16,6.5,6.5,0,0,1-.56-3.7A7.06,7.06,0,0,0,3,208.4c-.06-.09.14-.41.28-.56s.33-.05.43,0a3.5,3.5,0,0,1,.63.7c.42.67.8,1.37,1.21,2.05A1.88,1.88,0,0,1,5.52,213c-.37.43-.74.84-.56,1.47l1.12-.39a2.44,2.44,0,0,1,0,.78,2.62,2.62,0,0,0,0,2.52,2.94,2.94,0,0,1,.13,1.63C6.21,219.28,5.9,219.49,5.63,219.83Z"/><path d="M226.52,260.78c.29.43.44.56.44.68a5.92,5.92,0,0,1-.19,1.18,7.46,7.46,0,0,0,1.21,6.81,19.2,19.2,0,0,1,1.76,3.4c.41.92.27,1.7-.18,1.67-.72-.06-.76-.73-1-1.19-.7-1.26-1.37-2.53-2.05-3.79-.38-.71-.78-1.4-1.11-2.12a4.15,4.15,0,0,1-.24-2.82A14.62,14.62,0,0,1,226.52,260.78Z"/><path d="M200,317.85c-.22.7-.85.89-1.42,1.17a4.54,4.54,0,0,0-1.88,1.41,3.36,3.36,0,0,1-1.35.91c-.78.38-1.6.69-2.42,1a30.65,30.65,0,0,0-4.68,2.28,8.92,8.92,0,0,1-4.34,1.24c.38-.49.51-.83.73-.91,2.24-.77,4.12-2.34,6.48-2.88a13.93,13.93,0,0,0,2.73-1.31c.07,0,.12-.12.19-.14,2.13-.62,3.85-2.15,6-2.75Z"/><path d="M223.43,207.88c.25.65.41.86.4,1.06a13.1,13.1,0,0,1-.29,1.64,13.39,13.39,0,0,0,.69,8.65c.36.88.72,1.77,1,2.67.13.34.41.72,0,1.15-.18-.1-.47-.16-.56-.32-1.63-2.86-3-5.79-2.88-9.21A12.66,12.66,0,0,1,223.43,207.88Z"/><path d="M229.92,138.28c-.8-.48-.66-1.08-.62-1.6q.16-2,.42-4.05a16.43,16.43,0,0,0-.25-6.66c-.14-.51-.36-1.09.32-1.65.2.17.49.31.62.54a6.47,6.47,0,0,1,.85,4.14c-.27,2.06-.34,4.14-.53,6.2-.07.79-.21,1.58-.36,2.37A3,3,0,0,1,229.92,138.28Z"/><path d="M170.85,70.91c-.72.48-1.45,1-2.16,1.46-.45.31-1.11.59-1.26,1-.61,1.89-2.36,2.12-3.91,2.76l.85-1.46c-2.18,0-3.6,1.66-5.65,1.78a3.16,3.16,0,0,1,1.79-1.3c3-1.35,6-2.62,9-3.89a9,9,0,0,1,1.38-.34Z"/><path d="M98.62,103.67c-.21.68-.81.93-1.35,1.26-2.17,1.34-4.35,2.66-6.47,4.06-1.46,1-2.83,2.05-4.26,3-.87.59-1.61.65-1.64.22,0-.71.57-.91,1-1.18,3.58-2.22,7.18-4.41,10.77-6.61a3.46,3.46,0,0,1,2-.76Z"/><path d="M151.1,5.67a4.06,4.06,0,0,1-.69-.16q-4.53-1.87-9-3.78c-.52-.22-1.06-.46-1-1.17.07-.5.89-.71,1.65-.44a2.37,2.37,0,0,1,.64.31c2.38,2,5.26,3,7.93,4.42a6.07,6.07,0,0,1,.73.52Z"/><path d="M143.46,83.09a11,11,0,0,1-4.35,2.37c-3.23,1.12-6.25,2.69-9.45,3.85l-3.56,1.31,0,0A6.33,6.33,0,0,1,128.7,89c3.42-1.5,6.81-3.08,10.28-4.45a13.37,13.37,0,0,1,4.52-1.4Z"/><path d="M224,188c.06.29.22.61.13.82a17.05,17.05,0,0,1-1,1.9c-1,1.82-2.07,3.6-2,5.78a.67.67,0,0,1-.15.44,1.19,1.19,0,0,1-.56.31c-.09,0-.3-.14-.35-.26a3.2,3.2,0,0,1-.22-.9,6.2,6.2,0,0,1,.82-3.44c.83-1.53,1.82-3,2.76-4.44C223.51,188.07,223.73,188.06,224,188Z"/><path d="M33,311.19a8.63,8.63,0,0,1-1.67,1.64,75.43,75.43,0,0,0-9.43,6.59,4.78,4.78,0,0,1-.84.44s-.13-.06-.32-.16a18.49,18.49,0,0,1,2.57-2.44,83.31,83.31,0,0,1,8.61-5.64,6.73,6.73,0,0,1,1.12-.39Z"/><path d="M134.44,261.48c.41-.77,1.21-1,1.92-1.3,2.61-1.17,5.24-2.31,7.85-3.49,1.23-.55,2.42-1.17,3.65-1.73a.45.45,0,0,1,.41.14c0,.19.07.49,0,.6a2.11,2.11,0,0,1-.79.51c-1.45.63-2.92,1.25-4.39,1.87-2.42,1-4.84,2-7.27,3a12,12,0,0,1-1.37.36Z"/><path d="M3.53,169.91c-.83-3.74-.69-8.65.22-10.88.16.22.38.38.38.54,0,3,0,6-.09,9A5.75,5.75,0,0,1,3.53,169.91Z"/><path d="M96.13,384.07c0-.25,0-.47,0-.53A100.71,100.71,0,0,1,106.63,376c-.52,1.41-1.67,1.65-2.46,2.3s-1.71,1.43-2.59,2.11a19.61,19.61,0,0,1-2.71,2C97.93,382.87,97.4,384.05,96.13,384.07Z"/><path d="M150.05,13.61c-.85-.12-1.71-.22-2.55-.38a16.56,16.56,0,0,0-5.65-.48,1.25,1.25,0,0,1-.47,0c-.49-.12-.9-.34-1-.89-.05-.37.51-.74,1.08-.63q3.5.71,7,1.47c.59.13,1.17.34,1.75.52Z"/><path d="M70.57,29.26c-.2.24-.36.58-.62.71a111.5,111.5,0,0,1-10.78,4.37c-.35-.53,0-.69.26-.79A84.73,84.73,0,0,1,70.6,29.29Z"/><path d="M235.48,55.47c-.07.46-.15,1.08-.27,1.7-.05.27-.63.36-.81.13a2.52,2.52,0,0,1-.39-.59c-.48-1.34-1-2.68-1.38-4-.07-.21.14-.58.33-.78a.66.66,0,0,1,.64,0A4.29,4.29,0,0,1,235.48,55.47Z"/><path d="M11.09,55.73c.12-.18.18-.43.33-.52A101.19,101.19,0,0,1,22,49.72c.05.19.09.26.07.32a.28.28,0,0,1-.14.18L11.38,55.84S11.25,55.79,11.09,55.73Z"/><path d="M158.64,349a21.12,21.12,0,0,1,2.16-1.42c2.21-1.08,4.45-2.1,6.69-3.12.69-.32,1.36-.83,2.28-.45-.13.26-.18.57-.33.64q-5.3,2.16-10.59,4.28a.93.93,0,0,1-.24,0Z"/><path d="M166.74,334.93c.24-.39.38-.95.73-1.15,1.51-.89,3.07-1.66,4.62-2.48.5,1,.51,1-.07,1.26-.13.07-.42,0-.44.09-.52,1.52-1.78,1.33-3,1.33a1.55,1.55,0,0,0-.51.16,3.52,3.52,0,0,1-.49,1c-.36.41-.69.25-.87-.24Z"/><path d="M126.1,90.62c-1.08.51-2.15,1-3.23,1.53-1.8.84-3.6,1.68-5.42,2.49a4.32,4.32,0,0,1-.88.2.67.67,0,0,1,.42-1c2.41-1,4.82-2,7.27-3a7.12,7.12,0,0,1,1.87-.18Z"/><path d="M115.6,13.06A12,12,0,0,1,121,10.24c.64.47.51.86.11,1.25l-.19.15A14.24,14.24,0,0,1,115.6,13.06Z"/><path d="M225.45,179.84a3.94,3.94,0,0,0-2.93-1.47,3.3,3.3,0,0,1-1.1-.39.46.46,0,0,1-.22-.38c.05-.21.18-.53.32-.56a4.5,4.5,0,0,1,4.18,1.09C226.12,178.53,226.21,179.11,225.45,179.84Z"/><path d="M5.59,71.71c-.39-.39-.83-.65-1-1A2.64,2.64,0,0,1,5.13,68c.12-.16.44-.34.59-.29a1.16,1.16,0,0,1,.68.56A3.2,3.2,0,0,1,5.59,71.71Z"/><path d="M235,64.92c.89,1.26,1.53,2.06,2,2.93a1.17,1.17,0,0,1-.08,1.06c-.28.37-.72.13-1.07-.07a2.47,2.47,0,0,1-1.48-2.26A7.32,7.32,0,0,1,235,64.92Z"/><path d="M51.08,295.56a6.84,6.84,0,0,1,.75-.58,78.48,78.48,0,0,1,9.81-4.58c0,.27,0,.47-.09.5-3,1.44-6.07,2.88-9.12,4.28a7,7,0,0,1-1.38.35Z"/><path d="M142.82,219.69a5.78,5.78,0,0,0-3.15,1.76l-.53.33a4,4,0,0,0-2.49,1.59l.06,0-2.45.57,0,0a3.83,3.83,0,0,1,.75-.88,72,72,0,0,1,7.34-4.15c.16.32.28.58.41.83Z"/><path d="M237.73,73.13c-.15,1.38-.24,2.54-.42,3.68a.85.85,0,0,1-.56.6c-.24,0-.55-.22-.76-.42a.88.88,0,0,1-.29-.62,7.21,7.21,0,0,1,.3-1.81A2,2,0,0,1,237.73,73.13Z"/><path d="M103.92,270.79l4.39-2.56.45,1.48c-1.52,1.05-3,1.76-4.88,1Z"/><path d="M183,327a2.41,2.41,0,0,1-1.7.75c-2,.41-2,.43-3.43,1.88a5.35,5.35,0,0,1-.68-.11,2,2,0,0,1-.41-.22c0-.13,0-.34.09-.38,1.63-.86,3.25-1.71,4.9-2.51C182.35,326.15,182.85,326.27,183,327Z"/><path d="M143.5,83.13c1.08-1.4,2.76-1.82,4.26-2.49A5.81,5.81,0,0,1,150.6,80a22,22,0,0,1-7.14,3.11Z"/><path d="M3.48,236.4c-.42,2.11-.17,4.36-1.24,6.56-.25-.38-.48-.58-.46-.72C2.14,240.24,2.1,238.14,3.48,236.4Z"/><path d="M141.28,252.54a8.4,8.4,0,0,1,1.45-1.1c1.85-.86,3.72-1.66,5.6-2.44a6.22,6.22,0,0,1,1.38-.22l0,0a3.12,3.12,0,0,1-.7.62q-3.39,1.5-6.8,2.94a5.59,5.59,0,0,1-.94.2Z"/><path d="M84.84,371.6c.94.71.54,1.35.17,1.95a1.28,1.28,0,0,1-1.8.6,1.35,1.35,0,0,1-.63-.64c-.16-.34.11-.55.4-.73C83.58,372.42,84.15,372,84.84,371.6Z"/><path d="M5,151a9.23,9.23,0,0,1-.73,5c-.8-.66-.44-1.49-.38-2.2C4.05,152,4.16,151.76,5,151Z"/><path d="M5,125.16c-1-1.41-.45-2.52-.45-3.58,0-.51-.12-1.16.77-1.45A7.31,7.31,0,0,1,5,125.16Z"/><path d="M101,286.32c.52.39,1,.79,1.53,1.13s1.09.6,1.81,1c-.37.23-.61.52-.85.51a3.78,3.78,0,0,1-2.7-1.31C100.39,287.25,100.25,286.64,101,286.32Z"/><path d="M188.44,62.61c.19-.33.31-.78.59-1a41.57,41.57,0,0,1,4.89-2.36c0,.29.07.53,0,.55-1.84.92-3.69,1.82-5.53,2.73Z"/><path d="M81.69,378.63c.11.21.37.48.34.71a2.82,2.82,0,0,1-1.81,2.25c-.17.07-.45-.06-.62-.17a.41.41,0,0,1-.11-.41c.52-.77,1.05-1.53,1.61-2.27C81.17,378.65,81.39,378.68,81.69,378.63Z"/><path d="M78.68,363a1.46,1.46,0,0,1,1.22-1.73c1-.18,1.53.48,2,1.16-.15.18-.19.28-.25.29Z"/><path d="M76.35,380.54a2,2,0,0,1-.15.51,2.36,2.36,0,0,1-1.79,1,.94.94,0,0,1-.75-.39c-.11-.21,0-.75.13-.82A13.75,13.75,0,0,1,76,380.1C76.05,380.07,76.24,380.4,76.35,380.54Z"/><path d="M135.64,353.21a5.42,5.42,0,0,1-.8.85c-1.51,1-3,2-4.85,3.19.15-.52.14-.77.25-.86,1.28-1,2.57-1.88,3.85-2.82a2,2,0,0,1,1.59-.32Z"/><path d="M87.21,392.2a2.88,2.88,0,0,1-.3.87,18,18,0,0,1-4.14,2.49c.56-1.24,2.37-2.57,4.48-3.32Z"/><path d="M185,64.11c-1.66,1.45-3.75,2-5.65,3.07a1.89,1.89,0,0,1-.15-.49A13.19,13.19,0,0,1,185,64.14Z"/><path d="M87.25,392.24c.09-.22.12-.5.28-.64.85-.7,1.73-1.38,2.62-2.05.55-.41,1.13-.78,1.74-1.19.08.28.2.5.15.54-1.44,1.35-2.8,2.81-4.83,3.3Z"/><path d="M138.55,222.78a3,3,0,0,1-.59.72c-1.72,1.11-3.46,2.18-5.44,3.42a1.71,1.71,0,0,1,1.13-1.36,10.52,10.52,0,0,0,3.06-2.23l-.06,0,1.94-.56Z"/><path d="M33,311.23a2.86,2.86,0,0,1,.59-.73c1.74-1.11,3.49-2.17,5.33-3.31,0,.33.07.54,0,.58-1.6,1.05-3.2,2.09-4.83,3.1a4.48,4.48,0,0,1-1.13.32Z"/><path d="M157.23,77.27a24.28,24.28,0,0,1-5,2.37c.06-.32.05-.54.12-.58,1.43-.68,2.87-1.36,4.31-2C156.72,77,156.9,77.15,157.23,77.27Z"/><path d="M237.12,82.26a5.87,5.87,0,0,1,.31,2.8c0,.19-.27.54-.36.52-.27,0-.64-.17-.75-.39C235.66,83.93,235.83,83.28,237.12,82.26Z"/><path d="M5.12,113.77c-1.61-.73-1.75-1.56-.76-4.51a11.24,11.24,0,0,1,.34,2.37C4.84,112.3,5,113,5.12,113.77Z"/><path d="M112.83,371.93A5.3,5.3,0,0,1,112,373c-.88.67-1.83,1.26-2.75,1.87-.32.21-.65.39-1.15.69,1-1.8,2.05-2.58,4.8-3.64Z"/><path d="M149.77,344c.35-.82,1.18-1.05,1.84-1.46,1.14-.71,2.33-1.34,3.72-2.14-.89,1.36-3.21,2.77-5.6,3.56Z"/><path d="M141.24,252.51c-.82.47-1.62,1-2.48,1.4-1.08.51-2.21.91-3.32,1.35a3.39,3.39,0,0,1-.11-.37c1.74-.79,3.48-1.58,5.23-2.34a1.87,1.87,0,0,1,.71,0Z"/><path d="M230.4,153.34a2.66,2.66,0,0,1-.22.56,1.14,1.14,0,0,1-1.48,0,1.11,1.11,0,0,1-.43-1.22c0-.07.09-.16.15-.17a2.32,2.32,0,0,1,1.07-.05A3.8,3.8,0,0,1,230.4,153.34Z"/><path d="M78,373.64a6.86,6.86,0,0,1-1.38,2.4.44.44,0,0,1-.43,0c-.18-.11-.45-.34-.42-.48a3.74,3.74,0,0,1,1.12-2.2.6.6,0,0,1,.44,0A5.32,5.32,0,0,1,78,373.64Z"/><path d="M114,270.38a6.49,6.49,0,0,1-1.13.86c-1.23.57-2.49,1.07-3.73,1.59-.42-.41-.06-.62.19-.71,1.57-.55,3-1.63,4.7-1.7Z"/><path d="M208.55,314.16c-.06.14-.08.34-.19.42a28.39,28.39,0,0,1-4.74,2.24c.08-.44.06-.66.13-.69,1.61-.66,3.22-1.3,4.84-1.94Z"/><path d="M110.7,97.42a7.26,7.26,0,0,1-3.91,1.89A11.44,11.44,0,0,1,110.7,97.42Z"/><path d="M150.92,265.33c0,.07,0,.17-.11.2a5.18,5.18,0,0,1-.65.26c-.31.09-.62.17-.93.23a15.86,15.86,0,0,1-3.25.36,7,7,0,0,1,1.05-.46c1.15-.28,2.32-.52,3.48-.76C150.63,265.14,150.79,265.27,150.92,265.33Z"/><path d="M99.32,276.72c-.07.14-.1.32-.21.41a11.61,11.61,0,0,1-5,2.13,18,18,0,0,1,5.25-2.5Z"/><path d="M78.66,369.36A1.42,1.42,0,0,1,77.41,371a.68.68,0,0,1-.4-.19c-.38-.35-.31-.89.18-1.43.32-.36.69-.65,1.2-.35C78.51,369.07,78.57,369.24,78.66,369.36Z"/><path d="M82,369a3.26,3.26,0,0,1,.07-.53c.25-.8.62-1.2,1-1.08a.58.58,0,0,1,.35.28,1.27,1.27,0,0,1-.36,1.67.79.79,0,0,1-.64.1C82.27,369.33,82.15,369.09,82,369Z"/><path d="M142.94,348.54a39.82,39.82,0,0,1-4.05,2.6A5.4,5.4,0,0,1,142.94,348.54Z"/><path d="M98.66,103.7c1.21-1.34,1.62-1.58,3.82-2.21-.07.25-.08.55-.19.6-1.21.55-2.44,1.06-3.66,1.58Z"/><path d="M122.55,364.6l.8-.51,2.52-1.61c-.72,1.31-1,1.49-3,2.51Z"/><path d="M115.69,266.78c1.69-1.54,2.17-1.73,3.43-1.73-.07.12-.11.31-.22.36C117.84,265.88,116.76,266.33,115.69,266.78Z"/><path d="M99.35,276.76a24.16,24.16,0,0,1,4.87-2.23c-.43.54-.52.76-.67.82-1.39.52-2.65,1.45-4.23,1.37Z"/><path d="M4.07,205.05c-.66.1-.84-.22-.91-.63a2.12,2.12,0,0,1,1.14-2.3A6.88,6.88,0,0,1,4.07,205.05Z"/><path d="M27.46,47.63l-3,1.39C25.11,48.2,25.11,48.2,27.46,47.63Z"/><path d="M112.14,96.46c.91-.55,1.47-1.25,2.58-1.29C113.58,96.6,113.58,96.6,112.14,96.46Z"/><path d="M89.27,369.33a5.16,5.16,0,0,1,1.08-.45.68.68,0,0,1,.72.73.91.91,0,0,1-.95.83A1,1,0,0,1,89.27,369.33Z"/><path d="M73.84,358.4c.1-.14.2-.39.38-.49a1.13,1.13,0,0,1,1.49.31c.09.11.16.4.11.43a3.06,3.06,0,0,1-1,.56.8.8,0,0,1-1-.51A1.3,1.3,0,0,1,73.84,358.4Z"/><path d="M4.56,140.54a2,2,0,0,1-.24-2.42C4.76,139,4.76,139,4.56,140.54Z"/><path d="M126.57,264.82a5.26,5.26,0,0,1,3-1.4A6.06,6.06,0,0,1,126.57,264.82Z"/><path d="M3.58,103.77a1.69,1.69,0,0,1-.17-2.44A2.39,2.39,0,0,1,3.58,103.77Z"/><path d="M113.79,238.81a4.6,4.6,0,0,1-2.08,2.12c-.44-.49-.09-.71.12-.86C112.47,239.62,113.14,239.23,113.79,238.81Z"/><path d="M174.37,203.1a5.33,5.33,0,0,1,3.34-1.59,5.1,5.1,0,0,1-3.38,1.55Z"/><path d="M139.14,221.78l.53-.33,1.6-.43c-.52.92-.52.92-2.72,1.76l0,0Z"/><path d="M4.13,94.88c-.75-1-.85-1.59-.38-2.16a.26.26,0,0,1,.23,0C4.71,93.22,4.22,93.79,4.13,94.88Z"/><path d="M172,204.32a6,6,0,0,1-2.56,1.48C170.16,204.54,170.16,204.54,172,204.32Z"/><path d="M117.31,268.81a5.14,5.14,0,0,1-3.32,1.57l0,0a5.42,5.42,0,0,1,3.32-1.57Z"/><path d="M188.41,62.58a8.26,8.26,0,0,1-3.4,1.53l0,0a3.68,3.68,0,0,1,3.4-1.53Z"/><path d="M174.87,331.06l-1.42.24c0-.24,0-.52.05-.63a1.63,1.63,0,0,1,.78-.47C174.93,330.08,175.1,330.43,174.87,331.06Z"/><path d="M3.77,86.34a5.18,5.18,0,0,1,0,.88,2.41,2.41,0,0,1-.28.65C3.05,87.25,3.05,87.25,3.77,86.34Z"/><path d="M80,373.31c-.38.32-.6.61-.89.71-.11,0-.46-.35-.54-.59a.58.58,0,0,1,.64-.72C79.4,372.77,79.59,373,80,373.31Z"/><path d="M149.71,248.78c.82-1,2-1.08,3.34-1.61-1,1.13-1.45,1.32-3.37,1.58Z"/><path d="M72.23,286.18l-1.87.87c.13-1.16,1.17-.75,1.58-1.32Z"/><path d="M161,77.37a4.31,4.31,0,0,1-2.48,1A4,4,0,0,1,161,77.37Z"/><path d="M137.93,359.69l-1.83,1.18C136.49,360,136.49,360,137.93,359.69Z"/><path d="M127.28,258.8l1.75-.94C128.57,258.62,128.57,258.62,127.28,258.8Z"/><path d="M72.44,368.07c-.34.27-.56.6-.76.58a.8.8,0,0,1-.56-.54.78.78,0,0,1,.51-.59C71.83,367.5,72.08,367.81,72.44,368.07Z"/><path d="M69.81,373.46c-.34-.34-.62-.5-.72-.75a.59.59,0,0,1,.64-.76,1,1,0,0,1,.57.61C70.33,372.78,70.05,373.05,69.81,373.46Z"/><path d="M71.73,365.39c-.45.26-.67.47-.91.49s-.4-.21-.45-.38,0-.65.42-.62S71.26,365.12,71.73,365.39Z"/><path d="M93.51,387.89c.06-.91.57-1.22,1.4-1Z"/><path d="M110,268.8l1.79-1c.07.25.18.47.13.51A2,2,0,0,1,110,268.8Z"/><path d="M105.5,274.09c.27-.61.82-.61,1.35-.68C106.75,274.05,106.75,274.05,105.5,274.09Z"/><path d="M150.2,353.3c-.86.45-1.27.91-2,.54C148.66,353.23,149.17,353,150.2,353.3Z"/><path d="M67.2,288.47l-1.44.54c-.15-.47.24-.51.44-.62a4.5,4.5,0,0,1,.83-.28Z"/><path d="M28.41,73.15l1.13.44c-.24.57-.53.23-.73.16a2.05,2.05,0,0,1-.5-.39Z"/><path d="M135.74,356.09a2.13,2.13,0,0,1-1.59,1.2c.47-.75.47-.75,1.63-1.17Z"/><path d="M208.59,314.19a3,3,0,0,1,1.88-.72c.27.41,0,.6-.31.64a14.36,14.36,0,0,1-1.61.05Z"/><path d="M94.57,252a2,2,0,0,1-1.83,1.31A2.89,2.89,0,0,1,94.6,252Z"/><path d="M119.82,267.87a1.91,1.91,0,0,1,1.77-1.06c-.26,1-1.17.79-1.81,1Z"/><path d="M200.06,317.88c.58-.31,1-.9,1.86-.79-.6.7-.6.7-1.89.76Z"/><path d="M117.74,263.4c-.63.9-1,1.18-1.78,1Z"/><path d="M70.6,29.29l1.87-.88c.35.55-.1.64-.3.68a14,14,0,0,1-1.6.17Z"/><path d="M159.55,338.29l-1.5,1.31c.5-.88.5-.88,1.53-1.28Z"/><path d="M21.75,69.29a3.12,3.12,0,0,1-1.95-1.05,2.24,2.24,0,0,1,1.92,1.09Z"/><path d="M189.74,195.65c-.27.27-.39.47-.56.53s-.56.09-.62,0c-.24-.39.15-.5.4-.58A3.06,3.06,0,0,1,189.74,195.65Z"/><path d="M104.77,100.65l-1,.54C103.87,100.41,104.3,100.5,104.77,100.65Z"/><path d="M183.39,199l-1.55.76C181.91,198.92,182.4,199,183.39,199Z"/><path d="M166.74,334.93v0l-2.11.67A2,2,0,0,1,166.74,334.93Z"/><path d="M155.32,264.08a5.3,5.3,0,0,1,.77-.34c.11,0,.26.09.39.14-.07.12-.11.34-.2.36a4.4,4.4,0,0,1-.88.1Z"/><path d="M126.69,359l1.3-.88c.34.44-.07.54-.25.66A4,4,0,0,1,126.69,359Z"/><path d="M134.41,261.45l-1.51.93c-.4-.5,0-.63.21-.69a9.7,9.7,0,0,1,1.33-.21Z"/><path d="M112.87,372a3,3,0,0,1,1.34-1.08c-.37.66-.37.66-1.38,1.05Z"/><path d="M146.1,348.82l.77-.56.22.27-.76.64Z"/><path d="M158.61,349a3,3,0,0,1-2.37,1.05l0,0a2.64,2.64,0,0,1,2.37-1.05Z"/><path d="M140.87,352.51c-.22.6-.49,1.14-1.41,1a1.73,1.73,0,0,1,1.45-1Z"/><path d="M117.34,268.85a2.63,2.63,0,0,1,2.48-1l0,0a3.06,3.06,0,0,1-2.47,1Z"/><path d="M143.92,267.32c-.33.13-.58.24-.84.32a1,1,0,0,1-.14-.32,1.88,1.88,0,0,1,.56-.33C143.56,267,143.69,267.14,143.92,267.32Z"/><path d="M23.28,70.19a1.61,1.61,0,0,1,1.51,1.08,2,2,0,0,1-1.47-1.12Z"/><path d="M227.57,307.71a1.58,1.58,0,0,1,1.58,1,1.45,1.45,0,0,1-1.54-1Z"/><path d="M125,231.58c.07.32-.5.75-.78.59a.41.41,0,0,1-.08-.38,1.49,1.49,0,0,1,.53-.4C124.75,231.36,125,231.49,125,231.58Z"/><path d="M90.42,281a2.58,2.58,0,0,1,2-.92,2.22,2.22,0,0,1-2,.88Z"/><path d="M125.75,366.93c-.26.14-.52.29-.78.41a1.84,1.84,0,0,1-.2-.31c.27-.13.54-.26.81-.37A1.88,1.88,0,0,1,125.75,366.93Z"/><path d="M153.26,6.48l.21.31c-.07,0-.18.1-.19.08a3.21,3.21,0,0,1-.21-.3Z"/><path d="M118.33,371l.54-.38c0,.11.18.24.15.31a.53.53,0,0,1-.31.28C118.62,371.21,118.49,371.07,118.33,371Z"/><path d="M107.25,243.88l-.82.31c0-.13-.12-.32-.08-.36a2.08,2.08,0,0,1,.58-.33S107.08,243.68,107.25,243.88Z"/><path d="M128.11,361l.55-.31c.05.11.17.26.14.3a.54.54,0,0,1-.34.23C128.38,361.26,128.27,361.13,128.11,361Z"/><path d="M128.33,365.49a5.55,5.55,0,0,1-.75.39c-.1,0-.25-.06-.38-.09a2.86,2.86,0,0,1,.39-.51C127.65,365.24,127.83,365.34,128.33,365.49Z"/><path d="M174.7,69.28a4.23,4.23,0,0,1-.5.37s-.15-.14-.24-.22c.1-.1.19-.24.3-.28S174.49,69.21,174.7,69.28Z"/><path d="M120.41,262.32c-.06.13-.09.29-.19.37a1.35,1.35,0,0,1-.43.12,1.48,1.48,0,0,1,.23-.49C120.08,262.25,120.28,262.32,120.41,262.32Z"/><path d="M170.88,70.94l1.23-.8c-.08.31-.09.52-.15.54-.36.1-.74.16-1.11.23Z"/><path d="M152.94,344.68a1.79,1.79,0,0,1-.18-.37,3.84,3.84,0,0,1,.54-.35c.06.11.19.29.16.31A5.53,5.53,0,0,1,152.94,344.68Z"/><path d="M178.54,201a2.61,2.61,0,0,1,.54-.33c.06,0,.19.12.29.19a3.06,3.06,0,0,1-.49.4S178.69,201.12,178.54,201Z"/><path d="M147.89,345.07a2.21,2.21,0,0,1,1.88-1l0,0a1.74,1.74,0,0,1-1.88,1Z"/><path d="M159.58,338.32a1.18,1.18,0,0,1,1-.68c-.14.78-.69.56-1.08.65Z"/><path d="M227.36,334.45l-.63,0c.15-.05.29-.12.44-.16S227.27,334.38,227.36,334.45Z"/><path d="M113.49,265.65l.55-.3a.53.53,0,0,1,.22,0c0,.13,0,.32,0,.36a2.52,2.52,0,0,1-.54.21Z"/><path d="M162.23,337.09c-.06-.11-.2-.28-.16-.33a1.25,1.25,0,0,1,.37-.24c.06.11.19.28.16.33A1.25,1.25,0,0,1,162.23,337.09Z"/><path d="M123.87,266a3.88,3.88,0,0,1,.64-.56c.09-.05.25.05.38.09-.07.12-.11.31-.21.36A3.85,3.85,0,0,1,123.87,266Z"/><path d="M113.81,267.57l-.45-.15c.1-.09.19-.23.31-.27a1,1,0,0,1,.42,0Z"/><path d="M134.33,270.1a2.77,2.77,0,0,1-.53.32c-.07,0-.2-.12-.3-.18a3.06,3.06,0,0,1,.49-.4S134.18,270,134.33,270.1Z"/><path d="M226.59,147.38l.51-.31c.07.12.23.3.2.35a1.7,1.7,0,0,1-.42.38Z"/><path d="M27.28,310.11l-.19-.07a1.91,1.91,0,0,1,.16-.32.9.9,0,0,1,.18.06Z"/><path d="M164.34,337.22l-.37.07c0-.07,0-.2,0-.21a1.43,1.43,0,0,1,.37-.08Z"/><path d="M191.71,194.57l.26.27a2.2,2.2,0,0,1-.39.17c-.05,0-.12-.08-.19-.12Z"/><path d="M147.85,345l-.72.8s-.14,0-.17-.09-.05-.18,0-.19c.31-.17.64-.32,1-.48Z"/><path d="M144.81,346.89l.18.12c-.09.09-.17.19-.26.27s-.1-.06-.15-.1Z"/><path d="M142.4,351.56a7.54,7.54,0,0,1,.58-.67s.21.08.32.13c0,.06-.06.16-.11.19l-.82.31Z"/><path d="M156.24,350l-1.15.92c.37-1,.77-.92,1.18-.88Z"/><path d="M142.37,351.52a2.09,2.09,0,0,1-1.5,1l0,0a2.24,2.24,0,0,1,1.49-1Z"/><path d="M135.68,353.25c.17-.25.34-.5.53-.73,0,0,.22,0,.22,0s.09.37,0,.39a6.65,6.65,0,0,1-.84.33Z"/><path d="M137.26,355.13c.18-.31.28-.71.78-.66,0,.55-.49.5-.82.63Z"/><path d="M174.33,203.06c-.12.49-.33.84-.94.69.05-.65.51-.65,1-.65Z"/><path d="M177,67.84l.36-.22a2.29,2.29,0,0,1,.07.36s-.15.14-.17.12A3.19,3.19,0,0,1,177,67.84Z"/><path d="M137.22,355.1l-1.48,1,0,0a1.8,1.8,0,0,1,1.47-1Z"/><path d="M21.72,69.33a2.07,2.07,0,0,1,1.56.86l0,0a2.07,2.07,0,0,1-1.56-.86Z"/><path d="M141,357.65l.13.11-.25.27-.14-.11Z"/><path d="M196.72,58.31c0-.06,0-.18,0-.18a2.33,2.33,0,0,1,.38,0c0,.06,0,.17,0,.17A2.32,2.32,0,0,1,196.72,58.31Z"/><path d="M131.16,359.21a3.3,3.3,0,0,1,.41-.57c.07-.07.26,0,.39,0-.05.13-.06.33-.16.38a3.57,3.57,0,0,1-.68.19Z"/><path d="M131.12,359.18l-.69.69-.18-.27.91-.39Z"/><path d="M130.66,227.8c0,.12-.08.29-.17.35s-.25,0-.37,0c.06-.12.09-.28.18-.34S130.54,227.79,130.66,227.8Z"/><path d="M98.17,383.91l.19,0c0,.12,0,.29-.1.35s-.22,0-.34-.05Z"/><path d="M127.39,229.93l.33-.22a2.33,2.33,0,0,1,.06.35c0,.05-.14.14-.15.14A3.08,3.08,0,0,1,127.39,229.93Z"/><path d="M100.75,382.42a2.07,2.07,0,0,1-.22.35s-.13,0-.2-.06a3,3,0,0,1,.22-.35S100.68,382.4,100.75,382.42Z"/><path d="M103,246.44l-.34.24a1.8,1.8,0,0,1-.08-.39s.11-.1.17-.16A3.76,3.76,0,0,0,103,246.44Z"/><path d="M109,377.15h-.2a1.73,1.73,0,0,1,.14-.34s.12,0,.19,0S109,377,109,377.15Z"/><path d="M111.6,375.44l-.34.23a1.8,1.8,0,0,1-.08-.39s.16-.14.16-.14A2.43,2.43,0,0,1,111.6,375.44Z"/><path d="M114.37,373.63l-.26.26a2,2,0,0,1-.19-.31s.11-.12.15-.11A2.19,2.19,0,0,1,114.37,373.63Z"/><path d="M156.35,8l-.08.21a3.87,3.87,0,0,1-.34-.21s0-.13.07-.2Z"/><path d="M118.8,367.57c0,.11.13.27.09.33s-.23.13-.35.19c0-.12-.12-.27-.08-.34S118.68,367.62,118.8,367.57Z"/><path d="M119.46,235.45c-.08.12-.14.27-.25.33s-.22-.1-.33-.15c.08-.12.14-.29.24-.33S119.35,235.39,119.46,235.45Z"/><path d="M120.31,366.85a1.21,1.21,0,0,1-.12-.35s.13-.14.17-.12a2,2,0,0,1,.31.22Z"/></g></g></svg>