<svg xmlns="http://www.w3.org/2000/svg" viewBox="0 0 622.66 241.62"><title>Asset 5</title><g id="Layer_2" data-name="Layer 2"><g id="Layer_1-2" data-name="Layer 1"><path d="M31.42,135.29c-4.56.8-9.14,1.48-13.65,2.47a27.17,27.17,0,0,0-6.09,2.34c-5,2.49-5.63,3.83-5,10,3,1.51,6.17.23,9.28.18,2.94-.06,6-1.75,9.76.74L6.43,153.6C5,161.42,8.37,170.19,3.28,178.53A15,15,0,0,1,2,175.92c-.12-.49.36-1.51.23-1.57C-1.48,172.6.48,169.6.79,167.17c1.2-9.36,2.61-18.7,3.89-27.64,2.63-.71,4.88-1.4,7.18-1.93,5.23-1.22,10.47-2.44,15.74-3.48a15.19,15.19,0,0,1,4,.28Zm-27.28,32-.09.63Z"/><path d="M94.81,39.29a19.86,19.86,0,0,0-2.4,1.16c-2.61,1.76-5.23,3.51-7.76,5.39-5.78,4.3-11.7,8.44-16.77,13.59-2.52,2.56-4.81,5.35-7.18,8.06-.49.56-.78,1.31-1.31,1.82S58,70.71,57.27,70.8s-1.55-.62-2.33-1c-.26-.12-.53-.21-1-.39-9.93,8-20,16.11-30,24.24-3.87,3.16-6.67,7.29-9.71,11.19-.37.47-.24,1.33-.41,2.5a15.12,15.12,0,0,0,3.26-.85c3.78-2.15,7.49-4.42,11.23-6.64a25.31,25.31,0,0,1,2.73-1.53c.32-.15,1.09,0,1.19.21.21.46.37,1.26.12,1.59A15.33,15.33,0,0,1,29.55,103c-2.77,2-5.64,4-8.47,5.94-1.1.77-2.18,1.6-3.33,2.31a8,8,0,0,1-2.43,1.08c-4.73,1-6.59-.41-6.26-5.2.32-4.63.73-9.3,2.44-13.69a24.2,24.2,0,0,1,2-4,1.71,1.71,0,0,1,2.3-.82A2,2,0,0,1,17,90.91a17.12,17.12,0,0,1-.67,2.6c-.21.69-.46,1.37-.69,2.08.44.1.81.3.93.2Q28.94,85.7,41.28,75.53c5.43-4.48,10.87-9,16.22-13.56a16.09,16.09,0,0,0,3.47-4,7.43,7.43,0,0,1,5.67-4,10,10,0,0,0,4.77-2.3q13-9.35,26-18.65a11.43,11.43,0,0,0,5.17-9.58,6.84,6.84,0,0,0-2-.1c-3.16.95-6.55,1.52-9.37,3.1-4.29,2.4-9,4.19-12.82,7.35a2.74,2.74,0,0,1-1.14.69,2.16,2.16,0,0,1-1.6-.18,1.72,1.72,0,0,1-.34-1.6,8.66,8.66,0,0,1,2.49-3.05c7.26-4.26,14.59-8.41,23-10.14,4.65-1,6.64.94,5.53,5.64-.72,3-2.18,5.88-3.37,8.79-.57,1.38-1.26,2.72-2,4.05a12.69,12.69,0,0,0-1.82,7.75,2.86,2.86,0,0,1-.3,1.73,2.42,2.42,0,0,1-1.31,1c-.31.1-.87-.21-1.15-.5A5.37,5.37,0,0,1,95,43.4C95.19,42.13,95.82,40.81,94.81,39.29Z"/><path d="M473,215.69c-1.11,1.71-2.27,1.5-3.13,1-2.83-1.73-5.47-.94-8.1.36s-5.32,2.76-8,4.1c-7.9,4-15.7,8.14-23.77,11.73-4.48,2-9.41,3-14.13,4.44a34.06,34.06,0,0,1-9.27,1.53c-8.48.29-15.6-2.85-21.53-8.56-6.8-6.54-11.94-14.22-14.14-23.59-1.4-6-2.82-12-4.21-18a12.07,12.07,0,0,1-.35-2.67,1.85,1.85,0,0,1,1.38-2.07,3.16,3.16,0,0,1,2.42.61,4.71,4.71,0,0,1,1.15,2.8c.19,5.6,1.77,10.95,2.92,16.36a42.61,42.61,0,0,0,15.48,25.14,23.66,23.66,0,0,0,16.68,5.47A68.07,68.07,0,0,0,431,227.84c9.49-4.47,18.83-9.27,28.25-13.89,2-1,4.11-1.84,6.2-2.66,2.5-1,3.49-.75,5.15,1.17C471.45,213.46,472.16,214.58,473,215.69Z"/><path d="M158.52,121.48c-6.18-.22-12.25.89-18.33,1.79-9.79,1.45-19.6,2.81-29.36,4.48-8.43,1.44-16.81,3.14-25.17,5-3.5.76-6.87,2.13-10.32,3.18a16.11,16.11,0,0,1-3.07.64A2.15,2.15,0,0,1,70,134.78a2.43,2.43,0,0,1,1-2.78,6.73,6.73,0,0,1,2.1-.74c14.63-3.38,29.39-6.09,44.25-8.23,5.65-.81,11.24-1.93,16.88-2.8,7-1.07,14-2.09,21-3a89.25,89.25,0,0,1,9-.59c2.08-.06,2.9.6,3,1.94.13,1.85-.89,2.82-3.15,2.89C162.12,121.52,160.32,121.48,158.52,121.48Z"/><path d="M167.81,32a21.86,21.86,0,0,0-3.14-3.74c-1-1.05-2.26-1.93-3.5-3,.25-1.49.76-2.59.52-3.5-.58-2.22.15-4.1.88-6.08a30.76,30.76,0,0,0,1.21-4.32,8.8,8.8,0,0,0-1.06-6.07c-1.77-3.26-4.14-4-7.49-2.58-5.55,2.45-6.5,8.13-5.47,12,.69,2.57,1.82,5,.7,7.86,2.22.77,4.24,1.4,5.61,3.08a22.29,22.29,0,0,0,6.27,5.45,9.3,9.3,0,0,1,2.25,2.18,2.43,2.43,0,0,1,.14,3.29,4.31,4.31,0,0,1-7.19.19c-1-1.43-1.45-3.26-2.24-4.86a13.16,13.16,0,0,0-1.74-2A15.83,15.83,0,0,0,153,33c.18,2.68,1.74,4.73,3.37,6.71A7.1,7.1,0,0,0,166,41.08,6.4,6.4,0,0,0,167.81,32ZM157.36,12.38a18.12,18.12,0,0,1-.88,4.14,18.12,18.12,0,0,0,.88-4.14,29,29,0,0,1-2.53,2.78l0,.32-.65.13c-.24-.77-.51-1.53-.69-2.31a.77.77,0,0,1,.44-.63.8.8,0,0,1,.67.4s-1.16-.6-1.15-.55c.74-1.36,2.05-2,3-3.37,0-.21,0-.41,0-.63,0,.22,0,.42,0,.63.28-.39-.22-.24,0-.63-.16-.21,1.44-1,1.3-1.17a.79.79,0,0,1,.23-.73.82.82,0,0,1,.78,0,17.8,17.8,0,0,1,1,1.77l-.36.26A12.93,12.93,0,0,1,157.36,12.38Z"/><path d="M364.41,129.32c3.4-1.14,6.07-2,8.73-2.95s5.45-1.73,8-2.92,4.86-2.8,7.26-4.2c1.58,2.26,1.54,3.61-.11,4.61a20.07,20.07,0,0,1-2.88,1.26l-17.95,7.12c-.84.33-1.65.72-2.45,1.12a4.67,4.67,0,0,0-2.68,3.39,22.14,22.14,0,0,0-.63,8c.6,4,2.15,5.45,6.23,5.63a49.53,49.53,0,0,0,16.84-2.34c2.26-.69,4.42-1.7,6.66-2.58,1.7,1.51,1.86,2.72.38,3.76a7,7,0,0,1-1.58.83,79.54,79.54,0,0,1-19.68,4.44,13.37,13.37,0,0,1-4.45-.38c-5.07-1.25-7.9-4.72-8.07-9.95-.11-3.14,0-6.28.05-9.42a2.44,2.44,0,0,1,.31-1.29c2.25-3.08,2.24-6.76,2.85-10.28a7.38,7.38,0,0,1,.73-2.56,2.47,2.47,0,0,1,1.78-.9c.35,0,1,.77,1.05,1.23a32,32,0,0,1-.08,4C364.68,126.15,364.57,127.31,364.41,129.32Z"/><path d="M131.55,25.78c-3.83,4.39-8.84,6-13.75,7.86a9.46,9.46,0,0,1-3.51.5A2.23,2.23,0,0,1,112.57,33a3.28,3.28,0,0,1,.28-2.48,4.28,4.28,0,0,1,4.31-1.9c3.45.5,6.07-1.19,8.71-2.93a10.15,10.15,0,0,0,1.41-1.61,11.73,11.73,0,0,0-2.39-1.27c-2-.49-4.11-.85-6.17-1.19a9.33,9.33,0,0,1-5.2-2.46c-1.53-1.5-2-3.81-.67-5.31,2.26-2.66,4.94-4.82,8.64-5.12a3.82,3.82,0,0,1,1.33.44c.26,1.82-.86,2.79-2.14,3.56-.76.46-1.76.53-2.47,1a3.79,3.79,0,0,0-1.6,2c-.22,1.21.88,1.82,1.88,2.19a12.26,12.26,0,0,0,3,.77,33.27,33.27,0,0,1,10.3,2.75c.34-.18.68-.25.85-.46,1.23-1.47,2.1-3.49,4.24-3.77,3.12-.42,6.31-.72,9.35.36,2.56.9,3.32,3.24,1.69,5.39a19.27,19.27,0,0,1-8.63,6.22,4.44,4.44,0,0,1-4.64-.89C133.78,27.54,132.83,26.82,131.55,25.78ZM144.07,21a8,8,0,0,0-6.38.54,2.14,2.14,0,0,0-.94.89,2.94,2.94,0,0,0-.17,1.65c.07.31.62.65,1,.71C140.13,25.15,142.14,24,144.07,21Z"/><path d="M200.2,111.8c-.66,1.82-1.35,3.64-2,5.48s-1.17,4-2,6a5.41,5.41,0,0,1-2.18,2.05,1.43,1.43,0,0,1-2-1.15,4.76,4.76,0,0,1,.12-1.77c2.66-8.28,4.22-16.9,7.6-25,.52-1.25,1-2.53,1.57-3.74,1-2,2.47-2.26,3.77-.48,1.51,2,2.82,4.25,4.18,6.4.56.89,1,1.85,1.56,2.75,1.88,3.12,4.1,5.55,8.31,4.51.67-.17,1.52.41,2.77.79l-3.37,3.58c.67,2.48,2.41,4.16,4,6a27.25,27.25,0,0,1,2.29,2.76,1.64,1.64,0,0,1-.53,2.37,2.13,2.13,0,0,1-2-.16,32.92,32.92,0,0,1-3.32-3.65c-1.23-1.51-2.46-3-3.57-4.63-1.42-2-3.28-2.43-5.53-1.78-2,.59-4,1.15-6,1.73l-2.8.82c-1.35-.85-1.2-1.86-.89-2.92,1.8-1.53,4.11-1.71,6.23-2.41,1.22-.41,2.73-.47,3.23-2.37-1.63-2.69-2.75-5.92-5.61-8.08A28.31,28.31,0,0,0,200.2,111.8Z"/><path d="M182.2,20.82c.44-1.28.89-2.54,1.32-3.82,1.45-4.29,6.85-8.16,11.4-8a5.74,5.74,0,0,1,2.82,1.12,2.24,2.24,0,0,1,.79,3.16,11.55,11.55,0,0,1-2.39,3.18,41.71,41.71,0,0,1-4.09,2.75c-.69.48-1.32,1.06-2.1,1.69.57.5.85,1,1.21,1,5,1,9.83.89,14.48-1.43a7.09,7.09,0,0,0,3.26-3c.63-1.19,1.31-2.37,1.83-3.61A26.94,26.94,0,0,1,219.06,3.5,17.44,17.44,0,0,1,226.76,0c.4-.08,1.05.4,1.36.8.16.2,0,1-.31,1.17a24.6,24.6,0,0,1-3,1.93,23.8,23.8,0,0,0-11.16,13,10.26,10.26,0,0,1-5.12,5.91,25.76,25.76,0,0,1-12,3.23c-4,.08-7.74-.56-11-3.19a27.25,27.25,0,0,0-3.43-2.12ZM194,13.18c-3.37-.39-5.43.94-6.33,4.09C190.16,16.33,192.34,15.37,194,13.18Z"/><path d="M452.85,200.38c2.35.41,5.66.76,8.84,1.58,7.55,2,15.19,3.59,22.46,6.53.83.33,1.71.59,2.51,1a4.44,4.44,0,0,1,2.56,5.58,18.34,18.34,0,0,1-2.09,4.46,40.78,40.78,0,0,1-3.62,4.59c-1.27,1.47-2.66,2.85-4,4.26-3.53,3.68-7.32,7.16-8.78,12.33a1.68,1.68,0,0,1-1.32.91,2,2,0,0,1-1.3-1,4,4,0,0,1-.05-3.48,19.79,19.79,0,0,1,4.55-7.17c2.55-2.74,5.25-5.37,7.76-8.14a53.6,53.6,0,0,0,4.47-5.63c1.07-1.57.65-2.91-1.08-3.67A56.22,56.22,0,0,0,477,210c-4.74-1.4-9.5-2.73-14.3-3.9-2.9-.7-5.89-1-8.84-1.54a28.81,28.81,0,0,1-3.09-.49,2.2,2.2,0,0,1-1.45-2.5c.29-1.06,1.17-1.25,2.13-1.25Z"/><path d="M327.14,133.21c-1.16-.46-2-.77-2.79-1.1a64.45,64.45,0,0,0-14.26-4c-12-1.89-23.75-4.95-35.58-7.61-3.51-.78-7-1.6-10.45-2.66a39,39,0,0,1-6.58-2.84,3.89,3.89,0,0,1-1.49-2.08,1.49,1.49,0,0,1,1.77-1.89,7.53,7.53,0,0,1,1.66.68A41.27,41.27,0,0,0,271.21,116c12.7,2.94,25.27,6.39,38.17,8.46,5.46.88,10.82,2.41,16.18,3.83C327.93,128.92,328.14,129.81,327.14,133.21Z"/><path d="M345.61,174c2.53-.22,5.07-.39,7.6-.68,11-1.25,22-2.61,33-3.77,3.56-.37,7.17-.23,10.76-.29a6.27,6.27,0,0,1,1.77.26,2,2,0,0,1,1.17,2.88,3.29,3.29,0,0,1-4.17,1.74,28.65,28.65,0,0,0-9.34-1q-5.6.38-11.17,1c-6.53.76-13.07,1.43-19.53,2.76a73.34,73.34,0,0,1-10.26,1.12,16.33,16.33,0,0,1-4.4-.65,2.49,2.49,0,0,1-1.41-1,2,2,0,0,1-.28-1.63,1.85,1.85,0,0,1,1.31-.94c1.64-.11,3.29,0,4.93,0Z"/><path d="M403.4,106c-.23.31-.4.84-.73,1a10.45,10.45,0,0,1-3,.82c-6.31.36-12.36,2.11-18.5,3.35a43.88,43.88,0,0,0-7.62,2.59c-2.76,1.12-5.43,2.45-8.15,3.69-.13.06-.29.18-.41.15-.53-.14-1.3-.17-1.5-.52a1.65,1.65,0,0,1,.17-1.6,17.45,17.45,0,0,1,3.61-2.57,40.41,40.41,0,0,1,6.2-2.59c8.88-2.73,17.89-4.85,27.22-5.24a9.47,9.47,0,0,1,2.18.2C403.05,105.28,403.18,105.68,403.4,106Z"/><path d="M182.13,20.73a29,29,0,0,1-2.06,2.36c-1.86,1.73-3.6,1.87-5.63.39a9.66,9.66,0,0,1-2.22-2.2c-1.1-1.58-2.4-2.62-4.45-2.4a1.33,1.33,0,0,1-.85-.22c-.34-.25-.83-.61-.84-.93,0-.52.18-1.37.52-1.51,2-.84,3.62-1.88,4.39-4.09.4-1.13,1.54-1.13,2.55-.18a13.82,13.82,0,0,1,1.29,1.68c1.93-.37,3.94-.81,6-1.09.49-.07,1.49.39,1.48.58,0,.64-.22,1.63-.67,1.85-1.44.73-3.05,1.15-4.56,1.76-1,.38-2.09.73-1.85,2.13.19,1.11,1.31,1.78,2.86,1.38s2.89-.72,4.12.57Z"/><path d="M610.15,208.1c3.61,2,6.74,5.75,11.41,3.91,1.49,1.44,1.31,2.69.4,3.86-.74.94-1.83.86-2.89.63-4-.85-7-3.24-9.47-6.33a1.94,1.94,0,0,1-.16-1.28C609.47,208.67,609.79,208.48,610.15,208.1Z"/><path d="M573.17,188.73c0,1.25.32,2.28-.06,2.81a24.82,24.82,0,0,1-3.58,3.88c-.44.4-1.6.67-1.93.4a3.46,3.46,0,0,1-1.06-2.21,3.07,3.07,0,0,1,1-1.89A10.11,10.11,0,0,1,573.17,188.73Z"/><path d="M506.86,221.42a1.66,1.66,0,0,1-.65-2.69c1.7-2.39,4.31-3.57,6.9-4.71.6-.27,1.33.77,1.15,1.5a4.36,4.36,0,0,1-2.13,2.74Z"/><path d="M581.76,217.52c-1.45-.37-2.6-.62-3.72-1a3.77,3.77,0,0,1-2.73-3.62,1.33,1.33,0,0,1,1.79-1.34c1.35.6,2.69,1.23,4,1.92S582.55,214.86,581.76,217.52Z"/><path d="M533.44,159.52a7.28,7.28,0,0,1,2.23.53,2.36,2.36,0,0,1,1.09,1.7,2.06,2.06,0,0,1-1.15,1.59,10.71,10.71,0,0,1-3.44.4,2,2,0,0,1-1.83-2.1,2,2,0,0,1,1.91-2C532.53,159.56,532.83,159.56,533.44,159.52Z"/><path d="M557.36,228.35c2.14,0,3.55.89,4,2.7a3.39,3.39,0,0,1-.43,2.46c-.61.89-1.64.47-2.41,0a14,14,0,0,1-2.12-1.64,1.71,1.71,0,0,1-.46-2.39A5.72,5.72,0,0,1,557.36,228.35Z"/><path d="M537.17,192.18a14.19,14.19,0,0,1-3.08-.8c-.48-.23-.79-1.21-.79-1.85,0-.34.83-1,1.25-1a29.15,29.15,0,0,1,4.82.77,1.8,1.8,0,0,1,1,1.31c.11.91-.7,1.22-1.44,1.41A11.73,11.73,0,0,1,537.17,192.18Z"/><path d="M551.53,167.48c1.85.13,3.24.6,4.1,2a1.94,1.94,0,0,1,.14,1.64,1.83,1.83,0,0,1-1.38.81,4.39,4.39,0,0,1-3.78-1.93,2,2,0,0,1-.18-1.63C550.61,167.89,551.27,167.67,551.53,167.48Z"/><path d="M570.59,151.15a3.78,3.78,0,0,1,1.12.13,3.38,3.38,0,0,1,1,.79c1.31,1.56,1.64,3.22.75,3.93a1.46,1.46,0,0,1-1.2.2,3.77,3.77,0,0,1-2.48-3.77C569.88,152,570.37,151.51,570.59,151.15Z"/><path d="M606,182.67a3.44,3.44,0,0,1,2.2,3.81,2.14,2.14,0,0,1-1,1.26,1.36,1.36,0,0,1-1.2-.2C604.25,186.2,604.26,184.9,606,182.67Z"/><path d="M508.42,177.88c1.95.14,2.82.87,2.85,2.07s-.89,2.22-1.81,2.15a2.54,2.54,0,0,1-2.11-2.92C507.43,178.64,508.15,178.2,508.42,177.88Z"/><path d="M510.14,196.1c.61.08.95,0,1.16.18a2.36,2.36,0,0,1,.22,3.44,1.07,1.07,0,0,1-.78.27,2,2,0,0,1-1.51-2.32A4.69,4.69,0,0,1,510.14,196.1Z"/><path d="M536.11,203.09c2,1.5,3.43,2.58,2.49,4.94a2.83,2.83,0,0,1-2.85-2.55A8.61,8.61,0,0,1,536.11,203.09Z"/><path d="M524.41,228.13c-.21.2-.47.63-.81.72-1.05.27-1.92-1-1.6-2.45a1.22,1.22,0,0,1,.9-.71C523.85,225.75,524.5,226.82,524.41,228.13Z"/><path d="M496.67,149a2,2,0,0,1,2.1,2.11,1.62,1.62,0,0,1-1,1.19c-.93.15-1.84-.9-1.81-2.05C496,149.79,496.48,149.34,496.67,149Z"/><path d="M534.88,221.46c-.79-.8-1.3-1.1-1.48-1.55-.4-1,0-2,.83-2.08a1.46,1.46,0,0,1,1.15.85A12.62,12.62,0,0,1,534.88,221.46Z"/></g></g></svg>