<svg xmlns="http://www.w3.org/2000/svg" viewBox="0 0 329.63 159.7"><title>Asset 2</title><g id="Layer_2" data-name="Layer 2"><g id="Layer_1-2" data-name="Layer 1"><path d="M38.19,122.77c2.18-1.65,4.26-3.33,5.27-6,2.82-1.89,5.8-3.59,8.44-5.71,4-3.25,7.82-6.79,11.72-10.21a2,2,0,0,0-1.93.2c-4.07,3.13-8.2,6.19-12.12,9.51a79.74,79.74,0,0,0-6,6.3L41,115.58a40.27,40.27,0,0,1,3.12-3.19c6.17-4.86,12.29-9.81,18.61-14.47,8.1-6,16.57-11.46,23.7-18.67.11-.11.43,0,1.22,0-2.46,4.17-6.63,6.26-9.45,9.91l-.33,3.54,5.82-5.49v4l6.52-5.46c-.38,3.11-2.39,4-3.86,5.36a27.78,27.78,0,0,0-4.46,4.6c4.91-2.76,8.66-7,12.92-10.52l.67.61a9.57,9.57,0,0,1-1.18,1.87c-3.34,3.26-6.79,6.42-10,9.75-.84.86-1.06,2.31-1.73,3.39a12.09,12.09,0,0,1-2.37,3c-8.39,7-16.85,14-25.27,20.94a9.59,9.59,0,0,0-2.77,3.53c1-.71,2.12-1.36,3.09-2.15,9.44-7.68,18.92-15.31,28.24-23.13,4.31-3.63,8.27-7.68,12.42-11.51,1.24-1.14,2.57-2.17,3.86-3.25l.63.56L96.69,93l.47.52,10.54-8.07.62.73L89.48,102.33l.68.92,8.56-5.75.62.76c-3.93,3.25-7.83,6.53-11.78,9.75s-8.19,6.67-12.34,9.93-8.18,6.31-12.31,9.41-7.55,7-12.24,9.15l-.55-.79q3.23-4,6.48-8l3.12-1.56-.46-.68-2.57,2.31c-1.8,1.28-3.61,2.55-5.4,3.84-3.45,2.48-6.07,2.33-9.62-.62,9.72-11.77,22.08-20.6,33.93-30l-.51-.74c-1,.63-2,1.23-3,1.9s-2.23,1.53-3.28,2.38q-8.77,7-17.5,14.1c-.38.31-.91.58-1.08,1-1.61,3.79-5.09,5.75-8,8.25-1,.86-2.29,1.44-3.23,2.36"/><path d="M111.47,93.11c-1.84,2-3.22,3.48-4.64,5l1.38,1.82c-17.07,13.69-34,27.27-50.95,40.82-.19.15-.67-.05-1.34-.13a6.72,6.72,0,0,1,.72-2c5-6.1,11.06-11.09,17.22-16C86.05,113,98,103,110.08,93.11A7.11,7.11,0,0,1,111.47,93.11ZM91.94,110.84l-1.74,1.35.5.41c.38-.61.76-1.22,1.15-1.82l2.27-1.08c-.65-.3-1-.13-1.21.1S92.26,110.49,91.94,110.84ZM102.1,103l.14-.26a2.53,2.53,0,0,0-.48,0c-.07,0-.11.17-.16.25Z"/><path d="M143.5,53.81c3.3,6.92.46,13.83,1.84,20.51l2.28,1c-.19.3-.31.72-.54.8-1.8.59-2.14,2-1.81,3.53.64,2.94,1.44,5.84,2.16,8.68-1.65-.32-1.65-.32-4.16-10.85-3.87-.44-7.46.89-10.85,2.46-1,.48-1.54,2.35-2.11,3.65-1.32,3-2.48,6.13-3.82,9.15a16,16,0,0,1-2,2.76c-2-1.93-.8-3.77-.5-5.37C127.77,70.36,135.88,62.15,143.5,53.81ZM133,77.72l10.51-2.36c-.21-6.34,1-12.34-.1-18.59C138.91,59.42,133.85,69.68,133,77.72Zm-3,3-1.35-.58c-2.8,2.4-2.47,5.83-3,9l1,.37Zm-1.33-3,.65.51c2.31-1.26,4.3-5.57,4.29-10.24Z"/><path d="M185.55,34.55c-.22,3.05-.44,6.1-.72,10,3.78-3.13,6.92-5.8,10.14-8.37,3.06-2.43,5.82-5.35,9.45-6.94l.49.67c-2.17,1.69-4.38,3.33-6.51,5.07-4.27,3.49-8.59,6.93-12.74,10.58-3.48,3.06-3.09,7.22-2.66,11.31a9.34,9.34,0,0,1-.33,3.62c-2.86-3-1.37-6.61-1.63-10.79-3.63,2.91-6.64,5.54-9.88,7.86-3,2.17-5.28,5.38-8.47,7.34l-.81-.87a8.49,8.49,0,0,1,1.28-1.84c4.73-3.92,9.29-8.11,14.34-11.56,3.94-2.69,5.31-6.14,5.46-10.52.07-2.06.24-4.11,1.53-5.8Z"/><path d="M312.67,78.36c5.64.26,11.27-.86,16.9,0l.06,1-10.39.86c1.29,5.13.41,6.77-4.18,8.54a21.27,21.27,0,0,1-2.08.72c-7.53,2-12.52-2.49-11-10.14.83-4.1,2.82-7.58,6.62-9.74A5.1,5.1,0,0,1,310,69a3.76,3.76,0,0,1,1.18.16c.53,1.85-.6,2.67-2,3.37a9.88,9.88,0,0,0-5.44,10.92c.62,3.23,2.26,4.6,5.54,4.8a11.33,11.33,0,0,0,7.25-2.2c2.46-1.67,2.34-3.69-.28-5.07a40.4,40.4,0,0,0-3.78-1.54Z"/><path d="M240.6,102.48,222.83,107a8.11,8.11,0,0,0-.22,8.75c1.58,2.76,4.28,3.65,7.26,3.38a51.86,51.86,0,0,0,6.47-1.31c.89-.2,1.76-.53,2.66-.81.08.43.16.59.11.64-3.07,3.32-11.07,4.26-15.06,1.79-3.8-2.36-5.26-7.18-3.22-12.12a35.46,35.46,0,0,1,7.49-11.35c.58,4-3.12,5.46-3.62,8.69l15.7-3.37Z"/><path d="M211,108.58l-1.12,1.55a7.45,7.45,0,0,1-1.08-.44c-7.61-4.92-14.94-10.38-24-12.64Q175.9,94.8,167,92.66c-1.51-.36-2.94-.58-2.07-3C175.73,93.14,187,94.85,197,100.28,201.63,102.78,206.05,105.64,211,108.58Z"/><path d="M228,1.16a13.5,13.5,0,0,1-1.57,1.71c-2.12,1.64-4.42,3.07-6.41,4.85s-3.18,4.32-2,7,3.83,3.41,6.51,3.27c4.29-.21,8.57-.71,12.85-1.1a16.81,16.81,0,0,1,5.52.07,10.53,10.53,0,0,1-2.24.8c-5,.61-10,1.21-15,1.67-3.59.34-7.21-.07-8.84-3.79-1.55-3.55,0-6.81,2.59-9.35,2.32-2.26,5-4.19,7.46-6.27Z"/><path d="M244.18,84.69c-6.09,3.12-13.08,4.3-18.5,8.89l-.62-.51c.55-.73.95-1.69,1.68-2.14C232.06,87.6,238.06,86,244.18,84.69Z"/><path d="M283.17,90.17c-.71.43-1.39.9-2.12,1.28-4.69,2.41-9.39,4.79-14.27,7.28C268.15,95.61,276.73,90.91,283.17,90.17Z"/><path d="M235.5,105.69l-1.67,1.3-.36-.39,1.47-1.56Z"/><path d="M109.57,97.2l1-.83.33.3-.87,1Z"/><path d="M115.59,92.86l-1,.58-.24-.31.84-.77Z"/><path d="M46.62,106.16a1.27,1.27,0,0,1-.33.09c-.06,0-.11-.1-.16-.16Z"/><path d="M26.46,123.29c-3.84.68-7.7,1.25-11.5,2.08a22.77,22.77,0,0,0-5.12,2c-4.21,2.1-4.75,3.23-4.23,8.38,2.54,1.27,5.19.2,7.82.15,2.47-.05,5-1.48,8.22.63L5.42,138.71c-1.23,6.58,1.63,14-2.66,21a11.88,11.88,0,0,1-1.07-2.19c-.1-.42.31-1.27.2-1.33-3.14-1.47-1.48-4-1.22-6,1-7.89,2.2-15.75,3.27-23.28,2.21-.6,4.11-1.18,6.05-1.63,4.41-1,8.82-2,13.26-2.93a12.48,12.48,0,0,1,3.36.24Zm-23,27c0,.17-.06.35-.08.53C3.44,150.6,3.46,150.42,3.49,150.25Z"/></g></g></svg>